if (_typeface_js && _typeface_js.loadFace) _typeface_js.loadFace({"glyphs":{"S":{"x_min":60,"x_max":635,"ha":635,"o":"m 635 198 q 547 37 635 93 q 362 -11 473 -11 q 60 261 60 -11 l 87 261 q 362 16 87 16 q 528 57 461 16 q 607 198 607 107 q 533 326 607 283 q 389 375 496 348 q 202 427 334 387 q 115 564 115 458 q 149 657 115 615 q 343 728 208 728 q 587 516 587 728 l 560 516 q 343 700 560 700 q 172 639 223 700 q 143 564 143 604 q 213 454 143 480 q 389 405 245 441 q 554 346 505 375 q 635 198 635 296 "},"¦":{"x_min":60,"x_max":87.78125,"ha":88,"o":"m 87 615 l 60 615 l 60 1015 l 87 1015 l 87 615 m 87 -24 l 60 -24 l 60 376 l 87 376 l 87 -24 "},"/":{"x_min":59.71875,"x_max":541.671875,"ha":542,"o":"m 541 1015 l 87 -24 l 59 -24 l 513 1015 l 541 1015 "},"y":{"x_min":96.890625,"x_max":652.28125,"ha":652,"o":"m 652 729 l 387 380 l 387 -11 l 358 -11 l 358 384 l 96 729 l 133 729 l 373 405 l 618 729 l 652 729 "},"≈":{"x_min":65.5,"x_max":1205.234375,"ha":1205,"o":"m 1108 521 q 965 174 1108 317 q 617 31 822 31 q 269 189 413 31 q 128 549 128 343 q 272 884 128 753 q 618 1012 412 1012 q 965 868 822 1012 q 1108 521 1108 725 m 1039 521 q 916 819 1039 696 q 618 943 793 943 q 319 820 441 943 q 197 521 197 698 q 319 223 197 346 q 618 100 442 100 q 916 223 793 100 q 1039 521 1039 346 m 841 428 q 815 367 841 392 q 753 342 790 342 q 679 385 704 342 l 754 428 l 679 471 q 753 516 704 516 q 815 490 790 516 q 841 428 841 464 m 637 428 q 611 367 637 392 q 549 342 585 342 q 474 385 499 342 l 550 428 l 474 471 q 549 516 499 516 q 611 490 585 516 q 637 428 637 464 m 768 291 q 733 207 768 242 q 650 173 698 173 q 566 207 601 173 q 532 291 532 242 l 768 291 m 1205 -43 l 1074 -111 l 1067 -96 l 1102 95 l 1005 46 l 997 62 l 1116 123 l 1123 108 l 1088 -84 l 1196 -27 l 1205 -43 m 981 -146 l 963 -152 l 911 13 l 862 -3 l 856 14 l 973 51 l 979 35 l 929 18 l 981 -146 m 870 -177 l 852 -181 l 813 6 l 831 10 l 870 -177 m 642 -21 l 625 -209 l 609 -209 l 609 -169 q 529 -201 578 -205 q 467 -166 491 -196 q 443 -96 443 -135 q 474 -31 443 -56 q 547 -10 506 -6 q 621 -56 596 -14 l 625 -17 l 641 -18 l 640 -16 l 660 -16 l 741 -170 l 786 -2 l 805 -2 l 752 -196 l 736 -199 l 642 -21 m 615 -113 q 597 -56 618 -81 q 545 -29 577 -31 q 490 -46 513 -26 q 462 -98 466 -66 q 479 -155 458 -130 q 531 -183 500 -180 q 588 -166 563 -186 q 615 -113 612 -145 m 423 -50 q 399 -82 417 -71 q 359 -85 380 -92 l 338 -78 l 395 -187 l 370 -178 l 313 -70 l 270 -57 l 245 -141 l 227 -135 l 283 47 l 390 14 q 420 -11 411 7 q 423 -50 430 -29 m 406 -45 q 384 -2 416 -11 l 295 24 l 276 -39 l 363 -67 q 406 -45 397 -78 m 280 46 l 150 6 l 191 -123 l 168 -110 l 133 0 l 111 -6 l 82 -66 l 65 -57 l 151 112 l 168 104 l 123 15 l 255 58 l 280 46 "},"Ž":{"x_min":60,"x_max":682.515625,"ha":620,"o":"m 620 -11 l 60 -11 l 60 24 l 580 700 l 106 700 l 106 728 l 610 728 l 610 693 l 89 18 l 620 18 l 620 -11 m 682 1015 q 626 905 674 944 q 507 867 579 867 q 394 907 440 867 q 340 1015 348 948 l 368 1015 q 413 928 375 961 q 507 894 451 894 q 654 1015 642 894 l 682 1015 "},"Á":{"x_min":60,"x_max":800,"ha":800,"o":"m 800 -12 l 772 -12 l 772 215 q 636 48 730 111 q 430 -13 543 -13 q 167 94 275 -13 q 60 357 60 201 q 168 620 60 512 q 430 728 276 728 q 636 665 543 728 q 772 498 730 602 l 772 729 l 800 729 l 800 -12 m 772 357 q 672 600 772 501 q 430 700 573 700 q 187 600 287 700 q 87 357 87 501 q 187 113 87 213 q 430 14 286 14 q 672 114 573 14 q 772 357 772 214 m 586 1015 l 383 815 l 362 815 l 545 1015 l 586 1015 "},"g":{"x_min":60,"x_max":802,"ha":802,"o":"m 802 357 q 694 93 802 201 q 431 -13 586 -13 q 167 93 275 -13 q 60 357 60 201 q 167 620 60 512 q 430 728 275 728 q 610 681 526 728 q 746 552 694 634 l 722 539 q 430 700 619 700 q 187 600 287 700 q 87 357 87 500 q 188 114 87 214 q 432 14 288 14 q 671 109 571 14 q 771 343 771 204 l 429 343 l 429 371 l 802 371 l 802 357 "},"–":{"x_min":60,"x_max":616,"ha":616,"o":"m 616 358 l 60 358 l 60 385 l 616 385 l 616 358 "},"ë":{"x_min":60,"x_max":802,"ha":802,"o":"m 802 343 l 91 343 q 190 109 91 204 q 429 14 290 14 q 599 58 521 14 q 725 180 678 102 l 748 166 q 613 34 697 82 q 430 -13 529 -13 q 167 93 275 -13 q 60 357 60 201 q 167 620 60 512 q 431 728 275 728 q 694 620 586 728 q 802 357 802 512 l 802 343 m 771 371 q 670 605 771 509 q 431 700 570 700 q 191 605 291 700 q 91 371 91 509 l 771 371 m 556 895 q 517 856 556 856 q 478 895 478 856 q 517 934 478 934 q 556 895 556 934 m 341 895 q 302 856 341 856 q 263 895 263 856 q 302 934 263 934 q 341 895 341 934 "},"ƒ":{"x_min":59.71875,"x_max":720.828125,"ha":721,"o":"m 720 1006 l 715 979 q 641 988 670 988 q 488 854 515 988 l 437 598 l 613 598 l 608 571 l 431 571 l 304 -76 q 129 -246 270 -246 q 59 -237 86 -246 l 66 -209 q 125 -218 95 -218 q 275 -70 245 -218 l 401 571 l 236 571 l 241 598 l 406 598 l 461 869 q 644 1015 490 1015 q 720 1006 687 1015 "},"Î":{"x_min":59.609375,"x_max":395.71875,"ha":396,"o":"m 238 -12 l 211 -12 l 211 729 l 238 729 l 238 -12 m 395 822 l 367 822 l 224 992 l 87 822 l 59 822 l 216 1015 l 237 1015 l 395 822 "},"e":{"x_min":60,"x_max":802,"ha":802,"o":"m 802 343 l 91 343 q 190 109 91 204 q 429 14 290 14 q 599 58 521 14 q 725 180 678 102 l 748 166 q 613 34 697 82 q 430 -13 529 -13 q 167 93 275 -13 q 60 357 60 201 q 167 620 60 512 q 431 728 275 728 q 694 620 586 728 q 802 357 802 512 l 802 343 m 771 371 q 670 605 771 509 q 431 700 570 700 q 191 605 291 700 q 91 371 91 509 l 771 371 "},"Ã":{"x_min":60,"x_max":800,"ha":800,"o":"m 800 -12 l 772 -12 l 772 215 q 636 48 730 111 q 430 -13 543 -13 q 167 94 275 -13 q 60 357 60 201 q 168 620 60 512 q 430 728 276 728 q 636 665 543 728 q 772 498 730 602 l 772 729 l 800 729 l 800 -12 m 772 357 q 672 600 772 501 q 430 700 573 700 q 187 600 287 700 q 87 357 87 501 q 187 113 87 213 q 430 14 286 14 q 672 114 573 14 q 772 357 772 214 m 608 941 q 583 866 608 896 q 512 837 557 837 q 421 877 479 837 q 336 917 362 917 q 289 891 308 917 q 269 835 269 864 l 242 835 q 270 909 242 873 q 336 945 298 945 q 428 904 367 945 q 512 864 489 864 q 562 887 543 864 q 581 941 581 910 l 608 941 "},"J":{"x_min":60,"x_max":633.78125,"ha":634,"o":"m 633 273 q 550 70 633 154 q 347 -14 467 -14 q 143 69 226 -14 q 60 273 60 152 l 87 273 q 162 88 87 163 q 347 13 237 13 q 530 89 455 13 q 606 273 606 164 l 606 729 l 633 729 l 633 273 "},"»":{"x_min":60,"x_max":332,"ha":332,"o":"m 332 361 l 189 168 l 189 216 l 304 372 l 189 527 l 189 576 l 332 383 l 332 361 m 203 361 l 60 168 l 60 216 l 175 372 l 60 527 l 60 576 l 203 383 l 203 361 "},"∆":{"x_min":65.5,"x_max":1205.234375,"ha":1205,"o":"m 1108 521 q 965 174 1108 317 q 617 31 822 31 q 269 189 413 31 q 128 549 128 343 q 272 884 128 753 q 618 1012 412 1012 q 965 868 822 1012 q 1108 521 1108 725 m 1039 521 q 916 819 1039 696 q 618 943 793 943 q 319 820 441 943 q 197 521 197 698 q 319 223 197 346 q 618 100 442 100 q 916 223 793 100 q 1039 521 1039 346 m 841 428 q 815 367 841 392 q 753 342 790 342 q 679 385 704 342 l 754 428 l 679 471 q 753 516 704 516 q 815 490 790 516 q 841 428 841 464 m 637 428 q 611 367 637 392 q 549 342 585 342 q 474 385 499 342 l 550 428 l 474 471 q 549 516 499 516 q 611 490 585 516 q 637 428 637 464 m 768 291 q 733 207 768 242 q 650 173 698 173 q 566 207 601 173 q 532 291 532 242 l 768 291 m 1205 -43 l 1074 -111 l 1067 -96 l 1102 95 l 1005 46 l 997 62 l 1116 123 l 1123 108 l 1088 -84 l 1196 -27 l 1205 -43 m 981 -146 l 963 -152 l 911 13 l 862 -3 l 856 14 l 973 51 l 979 35 l 929 18 l 981 -146 m 870 -177 l 852 -181 l 813 6 l 831 10 l 870 -177 m 642 -21 l 625 -209 l 609 -209 l 609 -169 q 529 -201 578 -205 q 467 -166 491 -196 q 443 -96 443 -135 q 474 -31 443 -56 q 547 -10 506 -6 q 621 -56 596 -14 l 625 -17 l 641 -18 l 640 -16 l 660 -16 l 741 -170 l 786 -2 l 805 -2 l 752 -196 l 736 -199 l 642 -21 m 615 -113 q 597 -56 618 -81 q 545 -29 577 -31 q 490 -46 513 -26 q 462 -98 466 -66 q 479 -155 458 -130 q 531 -183 500 -180 q 588 -166 563 -186 q 615 -113 612 -145 m 423 -50 q 399 -82 417 -71 q 359 -85 380 -92 l 338 -78 l 395 -187 l 370 -178 l 313 -70 l 270 -57 l 245 -141 l 227 -135 l 283 47 l 390 14 q 420 -11 411 7 q 423 -50 430 -29 m 406 -45 q 384 -2 416 -11 l 295 24 l 276 -39 l 363 -67 q 406 -45 397 -78 m 280 46 l 150 6 l 191 -123 l 168 -110 l 133 0 l 111 -6 l 82 -66 l 65 -57 l 151 112 l 168 104 l 123 15 l 255 58 l 280 46 "},"‐":{"x_min":60,"x_max":303,"ha":303,"o":"m 303 358 l 60 358 l 60 385 l 303 385 l 303 358 "},"©":{"x_min":60,"x_max":801.78125,"ha":802,"o":"m 801 357 q 694 93 801 201 q 430 -13 586 -13 q 167 93 275 -13 q 60 357 60 201 q 167 620 60 512 q 430 728 275 728 q 694 620 586 728 q 801 357 801 512 m 774 357 q 673 600 774 500 q 430 700 573 700 q 187 600 287 700 q 87 357 87 500 q 187 114 87 214 q 430 14 287 14 q 673 114 573 14 q 774 357 774 214 m 594 266 q 416 158 529 158 q 275 216 333 158 q 218 358 218 274 q 276 498 218 440 q 416 557 334 557 q 593 451 526 557 l 557 428 q 416 515 504 515 q 305 469 351 515 q 260 358 260 423 q 305 246 260 292 q 416 200 351 200 q 558 288 505 200 l 594 266 "},"˘":{"x_min":59.71875,"x_max":401.390625,"ha":401,"o":"m 401 1016 q 345 906 393 945 q 226 867 298 867 q 113 908 159 867 q 59 1016 68 949 l 87 1016 q 132 928 94 961 q 226 894 170 894 q 373 1016 361 894 l 401 1016 "},"≥":{"x_min":60,"x_max":203,"ha":203,"o":"m 203 361 l 60 168 l 60 216 l 175 372 l 60 527 l 60 576 l 203 383 l 203 361 "},"ò":{"x_min":60,"x_max":801.78125,"ha":802,"o":"m 801 357 q 694 93 801 201 q 430 -13 586 -13 q 167 93 275 -13 q 60 357 60 201 q 167 620 60 512 q 430 728 275 728 q 694 620 586 728 q 801 357 801 512 m 774 357 q 673 600 774 500 q 430 700 573 700 q 187 600 287 700 q 87 357 87 500 q 187 114 87 214 q 430 14 287 14 q 673 114 573 14 q 774 357 774 214 m 510 815 l 489 815 l 296 1015 l 336 1015 l 510 815 "},"^":{"x_min":59.71875,"x_max":423.609375,"ha":424,"o":"m 423 614 l 395 614 l 241 917 l 87 614 l 59 614 l 227 945 l 255 945 l 423 614 "},"«":{"x_min":60,"x_max":332,"ha":332,"o":"m 332 168 l 189 361 l 189 383 l 332 576 l 332 527 l 216 372 l 332 216 l 332 168 m 203 168 l 60 361 l 60 383 l 203 576 l 203 527 l 87 372 l 203 216 l 203 168 "},"D":{"x_min":60,"x_max":801.78125,"ha":802,"o":"m 801 357 q 693 95 801 203 q 430 -13 585 -13 l 60 -13 l 60 729 l 73 728 l 430 728 q 694 620 586 728 q 801 357 801 513 m 774 357 q 673 600 774 500 q 430 700 573 700 l 87 700 l 87 14 l 430 14 q 673 114 573 14 q 774 357 774 214 "},"∙":{"x_min":60,"x_max":149,"ha":149,"o":"m 149 472 q 104 428 149 428 q 60 472 60 428 q 104 517 60 517 q 149 472 149 517 "},"ł":{"x_min":60,"x_max":282,"ha":282,"o":"m 282 395 l 147 395 l 147 -12 l 120 -12 l 120 395 l 60 395 l 60 422 l 120 422 l 120 729 l 147 729 l 147 422 l 282 422 l 282 395 "},"ÿ":{"x_min":97,"x_max":652.5,"ha":653,"o":"m 652 729 l 387 380 l 387 -11 l 358 -11 l 358 384 l 97 729 l 133 729 l 373 405 l 619 729 l 652 729 m 490 894 q 451 855 490 855 q 412 894 412 855 q 451 933 412 933 q 490 894 490 933 m 275 894 q 236 855 275 855 q 197 894 197 855 q 236 933 197 933 q 275 894 275 933 "},"Ł":{"x_min":60,"x_max":489.453125,"ha":490,"o":"m 489 -11 l 120 -11 l 120 395 l 60 395 l 60 423 l 120 423 l 120 729 l 147 729 l 147 423 l 282 423 l 282 395 l 147 395 l 147 16 l 489 16 l 489 -11 "},"í":{"x_min":60.046875,"x_max":283.671875,"ha":284,"o":"m 119 -12 l 92 -12 l 92 729 l 119 729 l 119 -12 m 283 1015 l 80 815 l 60 815 l 243 1015 l 283 1015 "},"ˆ":{"x_min":-77.78125,"x_max":258.328125,"ha":181,"o":"m 258 822 l 230 822 l 87 992 l -50 822 l -77 822 l 79 1015 l 100 1015 l 258 822 "},"w":{"x_min":90.28125,"x_max":1080.5625,"ha":1081,"o":"m 1080 729 l 844 -11 l 808 -11 l 586 701 l 583 701 l 359 -11 l 320 -11 l 90 729 l 118 729 l 338 16 l 341 16 l 562 729 l 605 729 l 825 16 l 827 16 l 1052 729 l 1080 729 "},"$":{"x_min":60,"x_max":513,"ha":513,"o":"m 513 234 q 460 119 513 163 q 340 70 414 80 l 340 -11 l 313 -11 l 313 68 l 299 68 q 260 68 278 68 l 260 -11 l 232 -11 l 232 73 q 60 284 60 100 l 86 284 q 298 94 86 94 q 425 125 373 94 q 487 234 487 163 q 429 331 487 298 q 318 368 400 348 q 173 410 276 380 q 103 519 103 434 q 123 583 103 552 q 232 643 155 631 l 232 729 l 260 729 l 260 646 q 283 648 271 648 q 313 646 299 648 l 313 729 l 340 729 l 340 642 q 475 479 475 617 l 450 479 q 283 622 450 622 q 182 599 225 622 q 129 519 129 571 q 181 434 129 455 q 318 396 214 421 q 448 349 407 375 q 513 234 513 310 "},"∫":{"x_min":65.5,"x_max":1205.234375,"ha":1205,"o":"m 1108 521 q 965 174 1108 317 q 617 31 822 31 q 269 189 413 31 q 128 549 128 343 q 272 884 128 753 q 618 1012 412 1012 q 965 868 822 1012 q 1108 521 1108 725 m 1039 521 q 916 819 1039 696 q 618 943 793 943 q 319 820 441 943 q 197 521 197 698 q 319 223 197 346 q 618 100 442 100 q 916 223 793 100 q 1039 521 1039 346 m 841 428 q 815 367 841 392 q 753 342 790 342 q 679 385 704 342 l 754 428 l 679 471 q 753 516 704 516 q 815 490 790 516 q 841 428 841 464 m 637 428 q 611 367 637 392 q 549 342 585 342 q 474 385 499 342 l 550 428 l 474 471 q 549 516 499 516 q 611 490 585 516 q 637 428 637 464 m 768 291 q 733 207 768 242 q 650 173 698 173 q 566 207 601 173 q 532 291 532 242 l 768 291 m 1205 -43 l 1074 -111 l 1067 -96 l 1102 95 l 1005 46 l 997 62 l 1116 123 l 1123 108 l 1088 -84 l 1196 -27 l 1205 -43 m 981 -146 l 963 -152 l 911 13 l 862 -3 l 856 14 l 973 51 l 979 35 l 929 18 l 981 -146 m 870 -177 l 852 -181 l 813 6 l 831 10 l 870 -177 m 642 -21 l 625 -209 l 609 -209 l 609 -169 q 529 -201 578 -205 q 467 -166 491 -196 q 443 -96 443 -135 q 474 -31 443 -56 q 547 -10 506 -6 q 621 -56 596 -14 l 625 -17 l 641 -18 l 640 -16 l 660 -16 l 741 -170 l 786 -2 l 805 -2 l 752 -196 l 736 -199 l 642 -21 m 615 -113 q 597 -56 618 -81 q 545 -29 577 -31 q 490 -46 513 -26 q 462 -98 466 -66 q 479 -155 458 -130 q 531 -183 500 -180 q 588 -166 563 -186 q 615 -113 612 -145 m 423 -50 q 399 -82 417 -71 q 359 -85 380 -92 l 338 -78 l 395 -187 l 370 -178 l 313 -70 l 270 -57 l 245 -141 l 227 -135 l 283 47 l 390 14 q 420 -11 411 7 q 423 -50 430 -29 m 406 -45 q 384 -2 416 -11 l 295 24 l 276 -39 l 363 -67 q 406 -45 397 -78 m 280 46 l 150 6 l 191 -123 l 168 -110 l 133 0 l 111 -6 l 82 -66 l 65 -57 l 151 112 l 168 104 l 123 15 l 255 58 l 280 46 "},"\\":{"x_min":59.71875,"x_max":541.671875,"ha":542,"o":"m 541 -24 l 513 -24 l 59 1015 l 87 1015 l 541 -24 "},"Ì":{"x_min":59.65625,"x_max":273.5625,"ha":274,"o":"m 170 -12 l 143 -12 l 143 729 l 170 729 l 170 -12 m 273 815 l 252 815 l 59 1015 l 99 1015 l 273 815 "},"µ":{"x_min":60,"x_max":600,"ha":600,"o":"m 600 0 l 572 0 l 572 176 l 569 176 q 478 33 548 84 q 312 -16 408 -16 q 90 112 147 -16 l 87 112 l 87 -246 l 60 -246 l 60 714 l 86 714 l 86 244 q 145 73 86 135 q 312 11 205 11 q 506 101 436 11 q 572 309 572 182 l 572 714 l 600 714 l 600 0 "},"Ç":{"x_min":60,"x_max":747.4375,"ha":747,"o":"m 747 166 q 612 35 696 83 q 430 -12 528 -12 q 167 94 275 -12 q 60 358 60 202 q 168 620 60 512 q 430 728 276 728 q 609 681 526 728 q 744 552 693 634 l 721 538 q 596 657 673 614 q 430 700 519 700 q 187 600 287 700 q 87 358 87 501 q 187 114 87 213 q 430 15 286 15 q 598 59 521 15 q 723 180 676 103 l 747 166 m 655 -152 q 519 -254 655 -254 q 405 -230 480 -254 l 418 -203 q 519 -226 482 -226 q 628 -152 628 -226 q 603 -112 628 -127 q 551 -97 578 -97 q 476 -115 507 -97 l 455 -101 l 534 0 l 562 0 l 505 -77 q 528 -73 512 -77 q 551 -69 543 -69 q 655 -152 655 -69 "},"’":{"x_min":60,"x_max":122.78125,"ha":123,"o":"m 122 565 q 115 477 122 499 q 60 416 103 440 l 60 444 q 95 565 95 466 l 95 729 l 122 729 l 122 565 "},"-":{"x_min":60,"x_max":303,"ha":303,"o":"m 303 358 l 60 358 l 60 385 l 303 385 l 303 358 "},"Q":{"x_min":60,"x_max":801.78125,"ha":802,"o":"m 801 357 q 732 141 801 237 q 549 5 662 44 l 549 -102 l 521 -102 l 521 -2 q 430 -13 476 -13 q 167 93 275 -13 q 60 357 60 201 q 167 620 60 512 q 430 728 275 728 q 694 620 586 728 q 801 357 801 512 m 774 357 q 673 600 774 500 q 429 700 573 700 q 190 604 290 700 q 91 368 91 508 q 382 284 251 368 q 547 34 529 187 q 711 160 649 72 q 774 357 774 248 m 519 25 q 366 260 506 171 q 91 340 245 340 q 190 108 91 202 q 430 14 290 14 q 519 25 476 14 "},"M":{"x_min":60,"x_max":801.78125,"ha":802,"o":"m 801 -12 l 774 -12 l 774 534 q 725 651 774 602 q 608 700 676 700 q 490 652 538 700 q 443 536 443 605 l 443 -12 l 415 -12 l 415 536 q 367 652 415 604 q 251 700 319 700 q 135 652 183 700 q 87 536 87 604 l 87 -12 l 60 -12 l 60 729 l 87 729 l 87 636 q 251 728 143 728 q 358 695 309 728 q 429 608 406 662 q 499 696 449 664 q 608 728 548 728 q 744 670 687 728 q 801 534 801 613 l 801 -12 "},"C":{"x_min":60,"x_max":747.5,"ha":748,"o":"m 747 166 q 612 35 696 83 q 430 -12 528 -12 q 167 94 275 -12 q 60 358 60 202 q 168 620 60 512 q 430 728 276 728 q 610 681 526 728 q 744 552 693 634 l 721 538 q 596 657 673 614 q 430 700 519 700 q 187 600 287 700 q 87 358 87 501 q 187 114 87 213 q 430 15 286 15 q 598 59 521 15 q 723 180 676 103 l 747 166 "},"œ":{"x_min":60,"x_max":1327,"ha":1327,"o":"m 1327 343 l 799 343 q 713 115 799 214 q 955 14 812 14 q 1125 58 1047 14 q 1250 180 1202 102 l 1273 166 q 1138 34 1222 82 q 955 -13 1054 -13 q 693 94 801 -13 q 430 -13 585 -13 q 167 93 275 -13 q 60 357 60 201 q 167 620 60 512 q 430 728 275 728 q 693 619 585 728 q 956 728 801 728 q 1219 620 1111 728 q 1327 357 1327 512 l 1327 343 m 1296 371 q 1196 605 1296 509 q 957 700 1096 700 q 713 598 813 700 q 799 371 799 500 l 1296 371 m 771 371 q 693 577 771 487 q 616 371 616 487 l 771 371 m 771 343 l 616 343 q 693 136 616 226 q 771 343 771 226 m 674 115 q 585 357 585 219 q 674 598 585 494 q 431 700 574 700 q 187 600 287 700 q 87 357 87 500 q 187 114 87 214 q 431 14 287 14 q 674 115 574 14 "},"!":{"x_min":60,"x_max":107,"ha":107,"o":"m 97 114 l 70 114 l 70 729 l 97 729 l 97 114 m 107 12 q 83 -11 107 -11 q 60 12 60 -11 q 83 36 60 36 q 107 12 107 36 "},"ç":{"x_min":60,"x_max":747.4375,"ha":747,"o":"m 747 166 q 612 35 696 83 q 430 -12 528 -12 q 167 94 275 -12 q 60 358 60 202 q 168 620 60 512 q 430 728 276 728 q 609 681 526 728 q 744 552 693 634 l 721 538 q 596 657 673 614 q 430 700 519 700 q 187 600 287 700 q 87 358 87 501 q 187 114 87 213 q 430 15 286 15 q 598 59 521 15 q 723 180 676 103 l 747 166 m 655 -152 q 519 -254 655 -254 q 405 -230 480 -254 l 418 -203 q 519 -226 482 -226 q 628 -152 628 -226 q 603 -112 628 -127 q 551 -97 578 -97 q 476 -115 507 -97 l 455 -101 l 534 0 l 562 0 l 505 -77 q 528 -73 512 -77 q 551 -69 543 -69 q 655 -152 655 -69 "},"È":{"x_min":60,"x_max":802,"ha":802,"o":"m 802 343 l 91 343 q 190 109 91 204 q 429 14 290 14 q 599 58 521 14 q 725 180 678 102 l 748 166 q 613 34 697 82 q 430 -13 529 -13 q 167 93 275 -13 q 60 357 60 201 q 167 620 60 512 q 431 728 275 728 q 694 620 586 728 q 802 357 802 512 l 802 343 m 771 371 q 670 605 771 509 q 431 700 570 700 q 191 605 291 700 q 91 371 91 509 l 771 371 m 510 815 l 489 815 l 296 1015 l 336 1015 l 510 815 "},"{":{"x_min":60,"x_max":331,"ha":331,"o":"m 331 -246 l 261 -246 q 175 -197 198 -246 q 160 -91 160 -164 l 160 134 q 143 269 160 220 q 60 375 121 336 l 60 402 q 139 500 111 411 q 160 635 160 566 l 160 864 q 175 968 160 936 q 261 1015 197 1015 l 331 1015 l 331 988 l 264 988 q 196 935 212 988 q 187 839 187 906 l 187 611 q 165 483 187 543 q 87 386 139 408 q 166 287 140 361 q 187 158 187 227 l 187 -66 q 196 -164 187 -136 q 264 -218 212 -218 l 331 -218 l 331 -246 "},"X":{"x_min":59.71875,"x_max":666.671875,"ha":667,"o":"m 666 -12 l 631 -12 l 362 336 l 94 -12 l 59 -12 l 345 357 l 66 729 l 102 729 l 362 378 l 627 729 l 661 729 l 380 357 l 666 -12 "},"ô":{"x_min":60,"x_max":801.78125,"ha":802,"o":"m 801 357 q 694 93 801 201 q 430 -13 586 -13 q 167 93 275 -13 q 60 357 60 201 q 167 620 60 512 q 430 728 275 728 q 694 620 586 728 q 801 357 801 512 m 774 357 q 673 600 774 500 q 430 700 573 700 q 187 600 287 700 q 87 357 87 500 q 187 114 87 214 q 430 14 287 14 q 673 114 573 14 q 774 357 774 214 m 592 822 l 564 822 l 421 993 l 283 822 l 255 822 l 412 1015 l 433 1015 l 592 822 "},"#":{"x_min":65.5,"x_max":1205.234375,"ha":1205,"o":"m 1108 521 q 965 174 1108 317 q 617 31 822 31 q 269 189 413 31 q 128 549 128 343 q 272 884 128 753 q 618 1012 412 1012 q 965 868 822 1012 q 1108 521 1108 725 m 1039 521 q 916 819 1039 696 q 618 943 793 943 q 319 820 441 943 q 197 521 197 698 q 319 223 197 346 q 618 100 442 100 q 916 223 793 100 q 1039 521 1039 346 m 841 428 q 815 367 841 392 q 753 342 790 342 q 679 385 704 342 l 754 428 l 679 471 q 753 516 704 516 q 815 490 790 516 q 841 428 841 464 m 637 428 q 611 367 637 392 q 549 342 585 342 q 474 385 499 342 l 550 428 l 474 471 q 549 516 499 516 q 611 490 585 516 q 637 428 637 464 m 768 291 q 733 207 768 242 q 650 173 698 173 q 566 207 601 173 q 532 291 532 242 l 768 291 m 1205 -43 l 1074 -111 l 1067 -96 l 1102 95 l 1005 46 l 997 62 l 1116 123 l 1123 108 l 1088 -84 l 1196 -27 l 1205 -43 m 981 -146 l 963 -152 l 911 13 l 862 -3 l 856 14 l 973 51 l 979 35 l 929 18 l 981 -146 m 870 -177 l 852 -181 l 813 6 l 831 10 l 870 -177 m 642 -21 l 625 -209 l 609 -209 l 609 -169 q 529 -201 578 -205 q 467 -166 491 -196 q 443 -96 443 -135 q 474 -31 443 -56 q 547 -10 506 -6 q 621 -56 596 -14 l 625 -17 l 641 -18 l 640 -16 l 660 -16 l 741 -170 l 786 -2 l 805 -2 l 752 -196 l 736 -199 l 642 -21 m 615 -113 q 597 -56 618 -81 q 545 -29 577 -31 q 490 -46 513 -26 q 462 -98 466 -66 q 479 -155 458 -130 q 531 -183 500 -180 q 588 -166 563 -186 q 615 -113 612 -145 m 423 -50 q 399 -82 417 -71 q 359 -85 380 -92 l 338 -78 l 395 -187 l 370 -178 l 313 -70 l 270 -57 l 245 -141 l 227 -135 l 283 47 l 390 14 q 420 -11 411 7 q 423 -50 430 -29 m 406 -45 q 384 -2 416 -11 l 295 24 l 276 -39 l 363 -67 q 406 -45 397 -78 m 280 46 l 150 6 l 191 -123 l 168 -110 l 133 0 l 111 -6 l 82 -66 l 65 -57 l 151 112 l 168 104 l 123 15 l 255 58 l 280 46 "},"Ê":{"x_min":60,"x_max":802,"ha":802,"o":"m 802 343 l 91 343 q 190 109 91 204 q 429 14 290 14 q 599 58 521 14 q 725 180 678 102 l 748 166 q 613 34 697 82 q 430 -13 529 -13 q 167 93 275 -13 q 60 357 60 201 q 167 620 60 512 q 431 728 275 728 q 694 620 586 728 q 802 357 802 512 l 802 343 m 771 371 q 670 605 771 509 q 431 700 570 700 q 191 605 291 700 q 91 371 91 509 l 771 371 m 591 822 l 564 822 l 421 993 l 283 822 l 256 822 l 412 1015 l 433 1015 l 591 822 "},")":{"x_min":59.5,"x_max":249.78125,"ha":250,"o":"m 249 377 q 88 -246 249 52 l 60 -246 q 222 377 222 52 q 59 1015 222 719 l 87 1015 q 249 377 249 701 "},"Å":{"x_min":60,"x_max":800,"ha":800,"o":"m 800 -12 l 772 -12 l 772 215 q 636 48 730 111 q 430 -13 543 -13 q 167 94 275 -13 q 60 357 60 201 q 168 620 60 512 q 430 728 276 728 q 636 665 543 728 q 772 498 730 602 l 772 729 l 800 729 l 800 -12 m 772 357 q 672 600 772 501 q 430 700 573 700 q 187 600 287 700 q 87 357 87 501 q 187 113 87 213 q 430 14 286 14 q 672 114 573 14 q 772 357 772 214 "},"Δ":{"x_min":65.5,"x_max":1205.234375,"ha":1205,"o":"m 1108 521 q 965 174 1108 317 q 617 31 822 31 q 269 189 413 31 q 128 549 128 343 q 272 884 128 753 q 618 1012 412 1012 q 965 868 822 1012 q 1108 521 1108 725 m 1039 521 q 916 819 1039 696 q 618 943 793 943 q 319 820 441 943 q 197 521 197 698 q 319 223 197 346 q 618 100 442 100 q 916 223 793 100 q 1039 521 1039 346 m 841 428 q 815 367 841 392 q 753 342 790 342 q 679 385 704 342 l 754 428 l 679 471 q 753 516 704 516 q 815 490 790 516 q 841 428 841 464 m 637 428 q 611 367 637 392 q 549 342 585 342 q 474 385 499 342 l 550 428 l 474 471 q 549 516 499 516 q 611 490 585 516 q 637 428 637 464 m 768 291 q 733 207 768 242 q 650 173 698 173 q 566 207 601 173 q 532 291 532 242 l 768 291 m 1205 -43 l 1074 -111 l 1067 -96 l 1102 95 l 1005 46 l 997 62 l 1116 123 l 1123 108 l 1088 -84 l 1196 -27 l 1205 -43 m 981 -146 l 963 -152 l 911 13 l 862 -3 l 856 14 l 973 51 l 979 35 l 929 18 l 981 -146 m 870 -177 l 852 -181 l 813 6 l 831 10 l 870 -177 m 642 -21 l 625 -209 l 609 -209 l 609 -169 q 529 -201 578 -205 q 467 -166 491 -196 q 443 -96 443 -135 q 474 -31 443 -56 q 547 -10 506 -6 q 621 -56 596 -14 l 625 -17 l 641 -18 l 640 -16 l 660 -16 l 741 -170 l 786 -2 l 805 -2 l 752 -196 l 736 -199 l 642 -21 m 615 -113 q 597 -56 618 -81 q 545 -29 577 -31 q 490 -46 513 -26 q 462 -98 466 -66 q 479 -155 458 -130 q 531 -183 500 -180 q 588 -166 563 -186 q 615 -113 612 -145 m 423 -50 q 399 -82 417 -71 q 359 -85 380 -92 l 338 -78 l 395 -187 l 370 -178 l 313 -70 l 270 -57 l 245 -141 l 227 -135 l 283 47 l 390 14 q 420 -11 411 7 q 423 -50 430 -29 m 406 -45 q 384 -2 416 -11 l 295 24 l 276 -39 l 363 -67 q 406 -45 397 -78 m 280 46 l 150 6 l 191 -123 l 168 -110 l 133 0 l 111 -6 l 82 -66 l 65 -57 l 151 112 l 168 104 l 123 15 l 255 58 l 280 46 "},"ø":{"x_min":60,"x_max":801.78125,"ha":802,"o":"m 801 357 q 694 93 801 201 q 430 -13 586 -13 q 167 93 275 -13 q 60 357 60 201 q 167 620 60 512 q 430 728 275 728 q 694 620 586 728 q 801 357 801 512 m 774 357 q 673 600 774 500 q 430 700 573 700 q 187 600 287 700 q 87 357 87 500 q 187 114 87 214 q 430 14 287 14 q 673 114 573 14 q 774 357 774 214 "},"â":{"x_min":60,"x_max":800,"ha":800,"o":"m 800 -12 l 772 -12 l 772 215 q 636 48 730 111 q 430 -13 543 -13 q 167 94 275 -13 q 60 357 60 201 q 168 620 60 512 q 430 728 276 728 q 636 665 543 728 q 772 498 730 602 l 772 729 l 800 729 l 800 -12 m 772 357 q 672 600 772 501 q 430 700 573 700 q 187 600 287 700 q 87 357 87 501 q 187 113 87 213 q 430 14 286 14 q 672 114 573 14 q 772 357 772 214 m 591 822 l 563 822 l 420 993 l 283 822 l 255 822 l 412 1015 l 433 1015 l 591 822 "},"}":{"x_min":60,"x_max":331,"ha":331,"o":"m 331 366 q 251 269 279 358 q 230 134 230 202 l 230 -94 q 215 -198 230 -166 q 129 -246 193 -246 l 60 -246 l 60 -218 l 126 -218 q 194 -165 178 -218 q 203 -69 203 -136 l 203 158 q 225 286 203 226 q 303 383 251 361 q 223 482 250 408 q 203 611 203 541 l 203 836 q 194 933 203 907 q 126 988 179 988 l 60 988 l 60 1015 l 129 1015 q 215 967 191 1015 q 230 861 230 933 l 230 635 q 247 500 230 548 q 331 394 269 433 l 331 366 "},"‰":{"x_min":60,"x_max":1442,"ha":1442,"o":"m 1442 219 q 1385 52 1442 117 q 1226 -17 1326 -17 q 1069 52 1126 -17 q 1015 217 1015 116 q 1068 387 1015 321 q 1226 458 1125 458 q 1386 391 1330 458 q 1442 219 1442 324 m 1414 217 q 1226 430 1414 430 q 1086 369 1133 430 q 1043 217 1043 313 q 1088 71 1043 127 q 1226 10 1138 10 q 1365 71 1314 10 q 1414 217 1414 128 m 486 722 q 429 555 486 620 q 270 486 370 486 q 114 555 171 486 q 60 720 60 619 q 112 890 60 824 q 270 961 169 961 q 430 894 375 961 q 486 722 486 827 m 458 720 q 270 933 458 933 q 130 872 177 933 q 87 720 87 816 q 133 574 87 630 q 270 513 183 513 q 409 574 358 513 q 458 720 458 631 m 847 991 l 186 -47 l 154 -47 l 815 991 l 847 991 m 942 219 q 885 52 942 117 q 726 -17 826 -17 q 569 52 626 -17 q 515 217 515 116 q 568 387 515 321 q 726 458 625 458 q 886 391 830 458 q 942 219 942 324 m 914 217 q 726 430 914 430 q 586 369 633 430 q 543 217 543 313 q 588 71 543 127 q 726 10 638 10 q 865 71 814 10 q 914 217 914 128 "},"Ä":{"x_min":60,"x_max":800,"ha":800,"o":"m 800 -12 l 772 -12 l 772 215 q 636 48 730 111 q 430 -13 543 -13 q 167 94 275 -13 q 60 357 60 201 q 168 620 60 512 q 430 728 276 728 q 636 665 543 728 q 772 498 730 602 l 772 729 l 800 729 l 800 -12 m 772 357 q 672 600 772 501 q 430 700 573 700 q 187 600 287 700 q 87 357 87 501 q 187 113 87 213 q 430 14 286 14 q 672 114 573 14 q 772 357 772 214 m 556 894 q 517 855 556 855 q 478 894 478 855 q 517 933 478 933 q 556 894 556 933 m 341 894 q 302 855 341 855 q 263 894 263 855 q 302 933 263 933 q 341 894 341 933 "},"⋲":{"x_min":65.5,"x_max":1205.234375,"ha":1205,"o":"m 1108 521 q 965 174 1108 317 q 617 31 822 31 q 269 189 413 31 q 128 549 128 343 q 272 884 128 753 q 618 1012 412 1012 q 965 868 822 1012 q 1108 521 1108 725 m 1039 521 q 916 819 1039 696 q 618 943 793 943 q 319 820 441 943 q 197 521 197 698 q 319 223 197 346 q 618 100 442 100 q 916 223 793 100 q 1039 521 1039 346 m 841 428 q 815 367 841 392 q 753 342 790 342 q 679 385 704 342 l 754 428 l 679 471 q 753 516 704 516 q 815 490 790 516 q 841 428 841 464 m 637 428 q 611 367 637 392 q 549 342 585 342 q 474 385 499 342 l 550 428 l 474 471 q 549 516 499 516 q 611 490 585 516 q 637 428 637 464 m 768 291 q 733 207 768 242 q 650 173 698 173 q 566 207 601 173 q 532 291 532 242 l 768 291 m 1205 -43 l 1074 -111 l 1067 -96 l 1102 95 l 1005 46 l 997 62 l 1116 123 l 1123 108 l 1088 -84 l 1196 -27 l 1205 -43 m 981 -146 l 963 -152 l 911 13 l 862 -3 l 856 14 l 973 51 l 979 35 l 929 18 l 981 -146 m 870 -177 l 852 -181 l 813 6 l 831 10 l 870 -177 m 642 -21 l 625 -209 l 609 -209 l 609 -169 q 529 -201 578 -205 q 467 -166 491 -196 q 443 -96 443 -135 q 474 -31 443 -56 q 547 -10 506 -6 q 621 -56 596 -14 l 625 -17 l 641 -18 l 640 -16 l 660 -16 l 741 -170 l 786 -2 l 805 -2 l 752 -196 l 736 -199 l 642 -21 m 615 -113 q 597 -56 618 -81 q 545 -29 577 -31 q 490 -46 513 -26 q 462 -98 466 -66 q 479 -155 458 -130 q 531 -183 500 -180 q 588 -166 563 -186 q 615 -113 612 -145 m 423 -50 q 399 -82 417 -71 q 359 -85 380 -92 l 338 -78 l 395 -187 l 370 -178 l 313 -70 l 270 -57 l 245 -141 l 227 -135 l 283 47 l 390 14 q 420 -11 411 7 q 423 -50 430 -29 m 406 -45 q 384 -2 416 -11 l 295 24 l 276 -39 l 363 -67 q 406 -45 397 -78 m 280 46 l 150 6 l 191 -123 l 168 -110 l 133 0 l 111 -6 l 82 -66 l 65 -57 l 151 112 l 168 104 l 123 15 l 255 58 l 280 46 "},"¸":{"x_min":59.78125,"x_max":309.78125,"ha":310,"o":"m 309 -152 q 173 -254 309 -254 q 59 -230 134 -254 l 72 -203 q 173 -226 136 -226 q 282 -152 282 -226 q 257 -112 282 -127 q 205 -97 232 -97 q 130 -115 161 -97 l 109 -101 l 188 0 l 216 0 l 159 -78 q 182 -73 166 -78 q 205 -69 197 -69 q 309 -152 309 -69 "},"a":{"x_min":60,"x_max":800,"ha":800,"o":"m 800 -12 l 772 -12 l 772 215 q 636 48 730 111 q 430 -13 543 -13 q 167 94 275 -13 q 60 357 60 201 q 168 620 60 512 q 430 728 276 728 q 636 665 543 728 q 772 498 730 602 l 772 729 l 800 729 l 800 -12 m 772 357 q 672 600 772 501 q 430 700 573 700 q 187 600 287 700 q 87 357 87 501 q 187 113 87 213 q 430 14 286 14 q 672 114 573 14 q 772 357 772 214 "},"—":{"x_min":60,"x_max":1310,"ha":1310,"o":"m 1310 358 l 60 358 l 60 385 l 1310 385 l 1310 358 "},"=":{"x_min":60,"x_max":760,"ha":760,"o":"m 760 472 l 60 472 l 60 500 l 760 500 l 760 472 m 760 203 l 60 203 l 60 230 l 760 230 l 760 203 "},"N":{"x_min":60,"x_max":679.78125,"ha":680,"o":"m 679 -12 l 652 -12 l 652 417 q 570 618 652 536 q 369 700 488 700 q 169 618 251 700 q 87 417 87 536 l 87 -12 l 60 -12 l 60 729 l 87 729 l 87 545 q 202 678 126 629 q 369 728 278 728 q 589 637 499 728 q 679 417 679 547 l 679 -12 "},"˚":{"x_min":60,"x_max":304.78125,"ha":305,"o":"m 304 936 q 268 850 304 886 q 182 814 232 814 q 96 850 132 814 q 60 936 60 886 q 96 1021 60 985 q 182 1058 133 1058 q 267 1021 231 1058 q 304 936 304 985 m 277 936 q 249 1003 277 975 q 182 1031 221 1031 q 115 1003 143 1031 q 87 936 87 975 q 115 869 87 897 q 182 841 143 841 q 249 869 221 841 q 277 936 277 897 "},"ú":{"x_min":60,"x_max":801.78125,"ha":802,"o":"m 801 -12 l 774 -12 l 774 214 q 637 47 730 110 q 430 -14 543 -14 q 167 92 275 -14 q 60 356 60 200 l 60 729 l 87 729 l 87 356 q 187 113 87 213 q 430 13 287 13 q 673 113 573 13 q 774 356 774 213 l 774 729 l 801 729 l 801 -12 m 586 1015 l 383 815 l 362 815 l 546 1015 l 586 1015 "},"⁄":{"x_min":129.171875,"x_max":611.109375,"ha":611,"o":"m 611 1015 l 156 -24 l 129 -24 l 583 1015 l 611 1015 "},"2":{"x_min":58,"x_max":559,"ha":559,"o":"m 559 -14 l 58 -14 q 208 209 58 99 q 336 298 251 238 q 514 539 514 423 q 454 671 514 626 q 311 715 400 715 q 97 481 97 715 l 72 481 q 310 740 72 740 q 471 691 410 740 q 540 539 540 637 q 365 287 540 412 q 234 195 322 256 q 84 12 95 95 l 559 12 l 559 -14 "},"ü":{"x_min":60,"x_max":801.78125,"ha":802,"o":"m 801 -12 l 774 -12 l 774 214 q 637 47 730 110 q 430 -14 543 -14 q 167 92 275 -14 q 60 356 60 200 l 60 729 l 87 729 l 87 356 q 187 113 87 213 q 430 13 287 13 q 673 113 573 13 q 774 356 774 213 l 774 729 l 801 729 l 801 -12 m 556 894 q 517 855 556 855 q 478 894 478 855 q 517 933 478 933 q 556 894 556 933 m 341 894 q 302 855 341 855 q 263 894 263 855 q 302 933 263 933 q 341 894 341 933 "},"¯":{"x_min":60,"x_max":382,"ha":382,"o":"m 382 872 l 60 872 l 60 899 l 382 899 l 382 872 "},"Z":{"x_min":60,"x_max":620,"ha":620,"o":"m 620 -11 l 60 -11 l 60 24 l 580 700 l 106 700 l 106 728 l 610 728 l 610 693 l 89 18 l 620 18 l 620 -11 "},"u":{"x_min":60,"x_max":801.78125,"ha":802,"o":"m 801 -12 l 774 -12 l 774 214 q 637 47 730 110 q 430 -14 543 -14 q 167 92 275 -14 q 60 356 60 200 l 60 729 l 87 729 l 87 356 q 187 113 87 213 q 430 13 287 13 q 673 113 573 13 q 774 356 774 213 l 774 729 l 801 729 l 801 -12 "},"":{"x_min":60,"x_max":487.78125,"ha":488,"o":"m 487 -12 l 460 -12 l 460 729 l 487 729 l 487 -12 m 446 345 l 87 345 l 87 -12 l 60 -12 l 60 534 q 117 671 60 615 q 254 728 174 728 q 363 695 314 728 q 432 607 412 663 q 445 535 445 588 l 419 535 q 370 651 419 603 q 254 700 322 700 q 136 652 185 700 q 87 534 87 604 l 87 372 l 446 372 l 446 345 "},"˜":{"x_min":-93,"x_max":273.78125,"ha":181,"o":"m 273 942 q 248 867 273 897 q 177 838 222 838 q 86 878 144 838 q 1 918 27 918 q -45 892 -26 918 q -65 837 -65 865 l -93 837 q -64 910 -93 875 q 1 946 -36 946 q 93 905 32 946 q 177 865 154 865 q 227 888 208 865 q 246 942 246 911 l 273 942 "},"Ó":{"x_min":60,"x_max":801.78125,"ha":802,"o":"m 801 357 q 694 93 801 201 q 430 -13 586 -13 q 167 93 275 -13 q 60 357 60 201 q 167 620 60 512 q 430 728 275 728 q 694 620 586 728 q 801 357 801 512 m 774 357 q 673 600 774 500 q 430 700 573 700 q 187 600 287 700 q 87 357 87 500 q 187 114 87 214 q 430 14 287 14 q 673 114 573 14 q 774 357 774 214 m 586 1015 l 383 815 l 362 815 l 546 1015 l 586 1015 "},"k":{"x_min":60,"x_max":568.34375,"ha":568,"o":"m 568 729 l 196 356 l 564 -12 l 525 -12 l 176 336 l 87 247 l 87 -12 l 60 -12 l 60 729 l 87 729 l 87 286 l 529 729 l 568 729 "},"ˇ":{"x_min":59.71875,"x_max":395.828125,"ha":396,"o":"m 395 1015 l 238 822 l 218 822 l 59 1015 l 87 1015 l 230 844 l 368 1015 l 395 1015 "},"Ù":{"x_min":60,"x_max":801.78125,"ha":802,"o":"m 801 -12 l 774 -12 l 774 214 q 637 47 730 110 q 430 -14 543 -14 q 167 92 275 -14 q 60 356 60 200 l 60 729 l 87 729 l 87 356 q 187 113 87 213 q 430 13 287 13 q 673 113 573 13 q 774 356 774 213 l 774 729 l 801 729 l 801 -12 m 510 815 l 489 815 l 296 1014 l 336 1014 l 510 815 "},"Ÿ":{"x_min":97,"x_max":652.5,"ha":653,"o":"m 652 729 l 387 380 l 387 -11 l 358 -11 l 358 384 l 97 729 l 133 729 l 373 405 l 619 729 l 652 729 m 490 894 q 451 855 490 855 q 412 894 412 855 q 451 933 412 933 q 490 894 490 933 m 275 894 q 236 855 275 855 q 197 894 197 855 q 236 933 197 933 q 275 894 275 933 "},"¢":{"x_min":65.5,"x_max":1205.234375,"ha":1205,"o":"m 1108 521 q 965 174 1108 317 q 617 31 822 31 q 269 189 413 31 q 128 549 128 343 q 272 884 128 753 q 618 1012 412 1012 q 965 868 822 1012 q 1108 521 1108 725 m 1039 521 q 916 819 1039 696 q 618 943 793 943 q 319 820 441 943 q 197 521 197 698 q 319 223 197 346 q 618 100 442 100 q 916 223 793 100 q 1039 521 1039 346 m 841 428 q 815 367 841 392 q 753 342 790 342 q 679 385 704 342 l 754 428 l 679 471 q 753 516 704 516 q 815 490 790 516 q 841 428 841 464 m 637 428 q 611 367 637 392 q 549 342 585 342 q 474 385 499 342 l 550 428 l 474 471 q 549 516 499 516 q 611 490 585 516 q 637 428 637 464 m 768 291 q 733 207 768 242 q 650 173 698 173 q 566 207 601 173 q 532 291 532 242 l 768 291 m 1205 -43 l 1074 -111 l 1067 -96 l 1102 95 l 1005 46 l 997 62 l 1116 123 l 1123 108 l 1088 -84 l 1196 -27 l 1205 -43 m 981 -146 l 963 -152 l 911 13 l 862 -3 l 856 14 l 973 51 l 979 35 l 929 18 l 981 -146 m 870 -177 l 852 -181 l 813 6 l 831 10 l 870 -177 m 642 -21 l 625 -209 l 609 -209 l 609 -169 q 529 -201 578 -205 q 467 -166 491 -196 q 443 -96 443 -135 q 474 -31 443 -56 q 547 -10 506 -6 q 621 -56 596 -14 l 625 -17 l 641 -18 l 640 -16 l 660 -16 l 741 -170 l 786 -2 l 805 -2 l 752 -196 l 736 -199 l 642 -21 m 615 -113 q 597 -56 618 -81 q 545 -29 577 -31 q 490 -46 513 -26 q 462 -98 466 -66 q 479 -155 458 -130 q 531 -183 500 -180 q 588 -166 563 -186 q 615 -113 612 -145 m 423 -50 q 399 -82 417 -71 q 359 -85 380 -92 l 338 -78 l 395 -187 l 370 -178 l 313 -70 l 270 -57 l 245 -141 l 227 -135 l 283 47 l 390 14 q 420 -11 411 7 q 423 -50 430 -29 m 406 -45 q 384 -2 416 -11 l 295 24 l 276 -39 l 363 -67 q 406 -45 397 -78 m 280 46 l 150 6 l 191 -123 l 168 -110 l 133 0 l 111 -6 l 82 -66 l 65 -57 l 151 112 l 168 104 l 123 15 l 255 58 l 280 46 "},"Ω":{"x_min":65.5,"x_max":1205.234375,"ha":1205,"o":"m 1108 521 q 965 174 1108 317 q 617 31 822 31 q 269 189 413 31 q 128 549 128 343 q 272 884 128 753 q 618 1012 412 1012 q 965 868 822 1012 q 1108 521 1108 725 m 1039 521 q 916 819 1039 696 q 618 943 793 943 q 319 820 441 943 q 197 521 197 698 q 319 223 197 346 q 618 100 442 100 q 916 223 793 100 q 1039 521 1039 346 m 841 428 q 815 367 841 392 q 753 342 790 342 q 679 385 704 342 l 754 428 l 679 471 q 753 516 704 516 q 815 490 790 516 q 841 428 841 464 m 637 428 q 611 367 637 392 q 549 342 585 342 q 474 385 499 342 l 550 428 l 474 471 q 549 516 499 516 q 611 490 585 516 q 637 428 637 464 m 768 291 q 733 207 768 242 q 650 173 698 173 q 566 207 601 173 q 532 291 532 242 l 768 291 m 1205 -43 l 1074 -111 l 1067 -96 l 1102 95 l 1005 46 l 997 62 l 1116 123 l 1123 108 l 1088 -84 l 1196 -27 l 1205 -43 m 981 -146 l 963 -152 l 911 13 l 862 -3 l 856 14 l 973 51 l 979 35 l 929 18 l 981 -146 m 870 -177 l 852 -181 l 813 6 l 831 10 l 870 -177 m 642 -21 l 625 -209 l 609 -209 l 609 -169 q 529 -201 578 -205 q 467 -166 491 -196 q 443 -96 443 -135 q 474 -31 443 -56 q 547 -10 506 -6 q 621 -56 596 -14 l 625 -17 l 641 -18 l 640 -16 l 660 -16 l 741 -170 l 786 -2 l 805 -2 l 752 -196 l 736 -199 l 642 -21 m 615 -113 q 597 -56 618 -81 q 545 -29 577 -31 q 490 -46 513 -26 q 462 -98 466 -66 q 479 -155 458 -130 q 531 -183 500 -180 q 588 -166 563 -186 q 615 -113 612 -145 m 423 -50 q 399 -82 417 -71 q 359 -85 380 -92 l 338 -78 l 395 -187 l 370 -178 l 313 -70 l 270 -57 l 245 -141 l 227 -135 l 283 47 l 390 14 q 420 -11 411 7 q 423 -50 430 -29 m 406 -45 q 384 -2 416 -11 l 295 24 l 276 -39 l 363 -67 q 406 -45 397 -78 m 280 46 l 150 6 l 191 -123 l 168 -110 l 133 0 l 111 -6 l 82 -66 l 65 -57 l 151 112 l 168 104 l 123 15 l 255 58 l 280 46 "},"ß":{"x_min":60,"x_max":493,"ha":493,"o":"m 493 208 q 219 -12 493 -12 l 133 -12 l 133 12 l 219 12 q 396 49 336 12 q 468 205 468 95 q 398 349 468 307 q 219 383 347 383 l 134 383 l 134 408 l 219 408 q 428 563 428 408 q 373 672 428 632 q 253 709 325 709 q 85 555 85 709 l 85 -13 l 60 -13 l 60 557 q 112 688 60 643 q 253 734 165 734 q 391 689 335 734 q 454 563 454 642 q 317 389 454 419 q 493 208 493 389 "},"é":{"x_min":60,"x_max":802,"ha":802,"o":"m 802 343 l 91 343 q 190 109 91 204 q 429 14 290 14 q 599 58 521 14 q 725 180 678 102 l 748 166 q 613 34 697 82 q 430 -13 529 -13 q 167 93 275 -13 q 60 357 60 201 q 167 620 60 512 q 431 728 275 728 q 694 620 586 728 q 802 357 802 512 l 802 343 m 771 371 q 670 605 771 509 q 431 700 570 700 q 191 605 291 700 q 91 371 91 509 l 771 371 m 586 1015 l 383 815 l 363 815 l 546 1015 l 586 1015 "},"s":{"x_min":60,"x_max":635,"ha":635,"o":"m 635 198 q 547 37 635 93 q 362 -11 473 -11 q 60 261 60 -11 l 87 261 q 362 16 87 16 q 528 57 461 16 q 607 198 607 107 q 533 326 607 283 q 389 375 496 348 q 202 427 334 387 q 115 564 115 458 q 149 657 115 615 q 343 728 208 728 q 587 516 587 728 l 560 516 q 343 700 560 700 q 172 639 223 700 q 143 564 143 604 q 213 454 143 480 q 389 405 245 441 q 554 346 505 375 q 635 198 635 296 "},"B":{"x_min":60,"x_max":685,"ha":685,"o":"m 685 181 q 628 44 685 101 q 491 -12 572 -12 l 60 -12 l 60 729 l 73 728 l 493 728 q 628 671 572 728 q 685 536 685 615 q 652 429 685 477 q 565 358 619 380 q 653 288 621 337 q 685 181 685 240 m 657 536 q 609 652 657 604 q 493 700 561 700 l 87 700 l 87 372 l 493 372 q 609 419 561 372 q 657 536 657 467 m 657 180 q 609 296 657 248 q 493 344 561 344 l 87 344 l 87 14 l 491 14 q 609 62 561 14 q 657 180 657 111 "},"…":{"x_min":60,"x_max":1002,"ha":1002,"o":"m 1002 39 q 963 0 1002 0 q 924 39 924 0 q 963 78 924 78 q 1002 39 1002 78 m 600 39 q 561 0 600 0 q 522 39 522 0 q 561 78 522 78 q 600 39 600 78 m 138 39 q 99 0 138 0 q 60 39 60 0 q 99 78 60 78 q 138 39 138 78 "},"?":{"x_min":60,"x_max":547.78125,"ha":548,"o":"m 547 483 q 481 314 547 385 q 318 243 415 243 l 318 77 l 290 77 l 290 268 l 304 268 q 457 331 394 268 q 520 484 520 394 q 456 636 520 573 q 304 700 393 700 q 151 637 214 700 q 87 485 87 575 l 60 485 q 131 657 60 586 q 304 728 203 728 q 476 656 404 728 q 547 483 547 584 m 328 12 q 304 -11 328 -11 q 281 12 281 -11 q 304 36 281 36 q 328 12 328 36 "},"H":{"x_min":60,"x_max":661,"ha":661,"o":"m 661 -12 l 633 -12 l 633 338 l 87 338 l 87 -12 l 60 -12 l 60 729 l 87 729 l 87 365 l 633 365 l 633 729 l 661 729 l 661 -12 "},"î":{"x_min":59.609375,"x_max":395.71875,"ha":396,"o":"m 238 -12 l 211 -12 l 211 729 l 238 729 l 238 -12 m 395 822 l 367 822 l 224 992 l 87 822 l 59 822 l 216 1015 l 237 1015 l 395 822 "},"c":{"x_min":60,"x_max":747.5,"ha":748,"o":"m 747 166 q 612 35 696 83 q 430 -12 528 -12 q 167 94 275 -12 q 60 358 60 202 q 168 620 60 512 q 430 728 276 728 q 610 681 526 728 q 744 552 693 634 l 721 538 q 596 657 673 614 q 430 700 519 700 q 187 600 287 700 q 87 358 87 501 q 187 114 87 213 q 430 15 286 15 q 598 59 521 15 q 723 180 676 103 l 747 166 "},"¶":{"x_min":65.5,"x_max":1205.234375,"ha":1205,"o":"m 1108 521 q 965 174 1108 317 q 617 31 822 31 q 269 189 413 31 q 128 549 128 343 q 272 884 128 753 q 618 1012 412 1012 q 965 868 822 1012 q 1108 521 1108 725 m 1039 521 q 916 819 1039 696 q 618 943 793 943 q 319 820 441 943 q 197 521 197 698 q 319 223 197 346 q 618 100 442 100 q 916 223 793 100 q 1039 521 1039 346 m 841 428 q 815 367 841 392 q 753 342 790 342 q 679 385 704 342 l 754 428 l 679 471 q 753 516 704 516 q 815 490 790 516 q 841 428 841 464 m 637 428 q 611 367 637 392 q 549 342 585 342 q 474 385 499 342 l 550 428 l 474 471 q 549 516 499 516 q 611 490 585 516 q 637 428 637 464 m 768 291 q 733 207 768 242 q 650 173 698 173 q 566 207 601 173 q 532 291 532 242 l 768 291 m 1205 -43 l 1074 -111 l 1067 -96 l 1102 95 l 1005 46 l 997 62 l 1116 123 l 1123 108 l 1088 -84 l 1196 -27 l 1205 -43 m 981 -146 l 963 -152 l 911 13 l 862 -3 l 856 14 l 973 51 l 979 35 l 929 18 l 981 -146 m 870 -177 l 852 -181 l 813 6 l 831 10 l 870 -177 m 642 -21 l 625 -209 l 609 -209 l 609 -169 q 529 -201 578 -205 q 467 -166 491 -196 q 443 -96 443 -135 q 474 -31 443 -56 q 547 -10 506 -6 q 621 -56 596 -14 l 625 -17 l 641 -18 l 640 -16 l 660 -16 l 741 -170 l 786 -2 l 805 -2 l 752 -196 l 736 -199 l 642 -21 m 615 -113 q 597 -56 618 -81 q 545 -29 577 -31 q 490 -46 513 -26 q 462 -98 466 -66 q 479 -155 458 -130 q 531 -183 500 -180 q 588 -166 563 -186 q 615 -113 612 -145 m 423 -50 q 399 -82 417 -71 q 359 -85 380 -92 l 338 -78 l 395 -187 l 370 -178 l 313 -70 l 270 -57 l 245 -141 l 227 -135 l 283 47 l 390 14 q 420 -11 411 7 q 423 -50 430 -29 m 406 -45 q 384 -2 416 -11 l 295 24 l 276 -39 l 363 -67 q 406 -45 397 -78 m 280 46 l 150 6 l 191 -123 l 168 -110 l 133 0 l 111 -6 l 82 -66 l 65 -57 l 151 112 l 168 104 l 123 15 l 255 58 l 280 46 "},"−":{"x_min":60,"x_max":760,"ha":760,"o":"m 760 338 l 60 338 l 60 365 l 760 365 l 760 338 "},"≠":{"x_min":65.5,"x_max":1205.234375,"ha":1205,"o":"m 1108 521 q 965 174 1108 317 q 617 31 822 31 q 269 189 413 31 q 128 549 128 343 q 272 884 128 753 q 618 1012 412 1012 q 965 868 822 1012 q 1108 521 1108 725 m 1039 521 q 916 819 1039 696 q 618 943 793 943 q 319 820 441 943 q 197 521 197 698 q 319 223 197 346 q 618 100 442 100 q 916 223 793 100 q 1039 521 1039 346 m 841 428 q 815 367 841 392 q 753 342 790 342 q 679 385 704 342 l 754 428 l 679 471 q 753 516 704 516 q 815 490 790 516 q 841 428 841 464 m 637 428 q 611 367 637 392 q 549 342 585 342 q 474 385 499 342 l 550 428 l 474 471 q 549 516 499 516 q 611 490 585 516 q 637 428 637 464 m 768 291 q 733 207 768 242 q 650 173 698 173 q 566 207 601 173 q 532 291 532 242 l 768 291 m 1205 -43 l 1074 -111 l 1067 -96 l 1102 95 l 1005 46 l 997 62 l 1116 123 l 1123 108 l 1088 -84 l 1196 -27 l 1205 -43 m 981 -146 l 963 -152 l 911 13 l 862 -3 l 856 14 l 973 51 l 979 35 l 929 18 l 981 -146 m 870 -177 l 852 -181 l 813 6 l 831 10 l 870 -177 m 642 -21 l 625 -209 l 609 -209 l 609 -169 q 529 -201 578 -205 q 467 -166 491 -196 q 443 -96 443 -135 q 474 -31 443 -56 q 547 -10 506 -6 q 621 -56 596 -14 l 625 -17 l 641 -18 l 640 -16 l 660 -16 l 741 -170 l 786 -2 l 805 -2 l 752 -196 l 736 -199 l 642 -21 m 615 -113 q 597 -56 618 -81 q 545 -29 577 -31 q 490 -46 513 -26 q 462 -98 466 -66 q 479 -155 458 -130 q 531 -183 500 -180 q 588 -166 563 -186 q 615 -113 612 -145 m 423 -50 q 399 -82 417 -71 q 359 -85 380 -92 l 338 -78 l 395 -187 l 370 -178 l 313 -70 l 270 -57 l 245 -141 l 227 -135 l 283 47 l 390 14 q 420 -11 411 7 q 423 -50 430 -29 m 406 -45 q 384 -2 416 -11 l 295 24 l 276 -39 l 363 -67 q 406 -45 397 -78 m 280 46 l 150 6 l 191 -123 l 168 -110 l 133 0 l 111 -6 l 82 -66 l 65 -57 l 151 112 l 168 104 l 123 15 l 255 58 l 280 46 "},"•":{"x_min":60,"x_max":556,"ha":556,"o":"m 556 495 q 483 319 556 391 q 307 247 411 247 q 132 319 204 247 q 60 495 60 391 q 132 670 60 598 q 307 743 204 743 q 483 670 411 743 q 556 495 556 598 "},"¥":{"x_min":59.5,"x_max":615.109375,"ha":615,"o":"m 615 729 l 349 380 l 349 365 l 579 365 l 579 337 l 349 337 l 349 283 l 579 283 l 579 255 l 349 255 l 349 -11 l 322 -11 l 322 255 l 97 255 l 97 283 l 322 283 l 322 337 l 97 337 l 97 365 l 322 365 l 322 380 l 319 384 l 59 729 l 95 729 l 335 405 l 581 729 l 615 729 "},"(":{"x_min":60,"x_max":250.28125,"ha":250,"o":"m 250 -246 l 222 -246 q 60 391 60 69 q 221 1015 60 716 l 248 1015 q 87 391 87 716 q 250 -246 87 49 "},"U":{"x_min":60,"x_max":801.78125,"ha":802,"o":"m 801 -12 l 774 -12 l 774 214 q 637 47 730 110 q 430 -14 543 -14 q 167 92 275 -14 q 60 356 60 200 l 60 729 l 87 729 l 87 356 q 187 113 87 213 q 430 13 287 13 q 673 113 573 13 q 774 356 774 213 l 774 729 l 801 729 l 801 -12 "},"◊":{"x_min":65.5,"x_max":1205.234375,"ha":1205,"o":"m 1108 521 q 965 174 1108 317 q 617 31 822 31 q 269 189 413 31 q 128 549 128 343 q 272 884 128 753 q 618 1012 412 1012 q 965 868 822 1012 q 1108 521 1108 725 m 1039 521 q 916 819 1039 696 q 618 943 793 943 q 319 820 441 943 q 197 521 197 698 q 319 223 197 346 q 618 100 442 100 q 916 223 793 100 q 1039 521 1039 346 m 841 428 q 815 367 841 392 q 753 342 790 342 q 679 385 704 342 l 754 428 l 679 471 q 753 516 704 516 q 815 490 790 516 q 841 428 841 464 m 637 428 q 611 367 637 392 q 549 342 585 342 q 474 385 499 342 l 550 428 l 474 471 q 549 516 499 516 q 611 490 585 516 q 637 428 637 464 m 768 291 q 733 207 768 242 q 650 173 698 173 q 566 207 601 173 q 532 291 532 242 l 768 291 m 1205 -43 l 1074 -111 l 1067 -96 l 1102 95 l 1005 46 l 997 62 l 1116 123 l 1123 108 l 1088 -84 l 1196 -27 l 1205 -43 m 981 -146 l 963 -152 l 911 13 l 862 -3 l 856 14 l 973 51 l 979 35 l 929 18 l 981 -146 m 870 -177 l 852 -181 l 813 6 l 831 10 l 870 -177 m 642 -21 l 625 -209 l 609 -209 l 609 -169 q 529 -201 578 -205 q 467 -166 491 -196 q 443 -96 443 -135 q 474 -31 443 -56 q 547 -10 506 -6 q 621 -56 596 -14 l 625 -17 l 641 -18 l 640 -16 l 660 -16 l 741 -170 l 786 -2 l 805 -2 l 752 -196 l 736 -199 l 642 -21 m 615 -113 q 597 -56 618 -81 q 545 -29 577 -31 q 490 -46 513 -26 q 462 -98 466 -66 q 479 -155 458 -130 q 531 -183 500 -180 q 588 -166 563 -186 q 615 -113 612 -145 m 423 -50 q 399 -82 417 -71 q 359 -85 380 -92 l 338 -78 l 395 -187 l 370 -178 l 313 -70 l 270 -57 l 245 -141 l 227 -135 l 283 47 l 390 14 q 420 -11 411 7 q 423 -50 430 -29 m 406 -45 q 384 -2 416 -11 l 295 24 l 276 -39 l 363 -67 q 406 -45 397 -78 m 280 46 l 150 6 l 191 -123 l 168 -110 l 133 0 l 111 -6 l 82 -66 l 65 -57 l 151 112 l 168 104 l 123 15 l 255 58 l 280 46 "},"Ñ":{"x_min":60,"x_max":679.78125,"ha":680,"o":"m 679 -12 l 652 -12 l 652 417 q 570 618 652 536 q 369 700 488 700 q 169 618 251 700 q 87 417 87 536 l 87 -12 l 60 -12 l 60 729 l 87 729 l 87 545 q 202 678 126 629 q 369 728 278 728 q 589 637 499 728 q 679 417 679 547 l 679 -12 m 553 941 q 527 866 553 896 q 457 837 501 837 q 365 877 423 837 q 280 917 307 917 q 233 891 252 917 q 214 835 214 864 l 186 835 q 214 909 186 873 q 280 945 243 945 q 372 904 311 945 q 457 864 433 864 q 506 887 487 864 q 525 941 525 910 l 553 941 "},"F":{"x_min":60,"x_max":532.21875,"ha":532,"o":"m 532 346 l 87 346 l 87 -11 l 60 -11 l 60 729 l 73 728 l 532 728 l 532 700 l 87 700 l 87 373 l 532 373 l 532 346 "},"­":{"x_min":60,"x_max":760,"ha":760,"o":"m 760 338 l 60 338 l 60 365 l 760 365 l 760 338 "},":":{"x_min":60,"x_max":138,"ha":138,"o":"m 138 336 q 99 297 138 297 q 60 336 60 297 q 99 375 60 375 q 138 336 138 375 m 138 95 q 99 57 138 57 q 60 95 60 57 q 99 135 60 135 q 138 95 138 135 "},"Û":{"x_min":60,"x_max":801.78125,"ha":802,"o":"m 801 -12 l 774 -12 l 774 214 q 637 47 730 110 q 430 -14 543 -14 q 167 92 275 -14 q 60 356 60 200 l 60 729 l 87 729 l 87 356 q 187 113 87 213 q 430 13 287 13 q 673 113 573 13 q 774 356 774 213 l 774 729 l 801 729 l 801 -12 m 592 822 l 564 822 l 421 992 l 283 822 l 255 822 l 412 1014 l 433 1014 l 592 822 "},"*":{"x_min":59.65625,"x_max":459.671875,"ha":460,"o":"m 459 565 l 279 506 l 394 354 l 372 338 l 256 488 l 140 343 l 118 361 l 240 506 l 59 565 l 68 592 l 243 532 l 243 727 l 270 727 l 270 532 l 454 592 l 459 565 "},"†":{"x_min":59.5,"x_max":1199.21875,"ha":1199,"o":"m 1102 521 q 959 174 1102 317 q 611 31 816 31 q 263 189 407 31 q 122 549 122 343 q 266 884 122 753 q 612 1012 406 1012 q 959 868 816 1012 q 1102 521 1102 725 m 1033 521 q 910 819 1033 696 q 612 943 787 943 q 313 820 435 943 q 191 521 191 698 q 313 223 191 346 q 612 100 436 100 q 910 223 787 100 q 1033 521 1033 346 m 835 428 q 809 367 835 392 q 747 342 784 342 q 672 385 697 342 l 748 428 l 672 471 q 747 516 697 516 q 809 490 784 516 q 835 428 835 464 m 631 428 q 605 367 631 392 q 543 342 579 342 q 468 385 493 342 l 544 428 l 468 471 q 543 516 493 516 q 605 490 579 516 q 631 428 631 464 m 762 291 q 727 207 762 242 q 644 173 692 173 q 560 207 595 173 q 526 291 526 242 l 762 291 m 1199 -43 l 1068 -111 l 1061 -96 l 1096 95 l 999 46 l 991 62 l 1110 123 l 1117 108 l 1082 -84 l 1190 -27 l 1199 -43 m 975 -146 l 957 -152 l 905 13 l 856 -3 l 850 14 l 967 51 l 973 35 l 923 18 l 975 -146 m 864 -177 l 846 -181 l 807 6 l 825 10 l 864 -177 m 636 -21 l 619 -209 l 603 -209 l 603 -169 q 523 -201 572 -205 q 461 -166 485 -196 q 437 -96 437 -135 q 468 -31 437 -56 q 541 -10 500 -6 q 615 -56 590 -14 l 619 -17 l 635 -18 l 634 -16 l 654 -16 l 735 -170 l 780 -2 l 799 -2 l 746 -196 l 730 -199 l 636 -21 m 609 -113 q 592 -56 612 -81 q 540 -29 572 -31 q 484 -46 508 -26 q 456 -98 461 -66 q 473 -155 452 -130 q 526 -183 494 -180 q 582 -166 558 -186 q 609 -113 606 -145 m 417 -50 q 393 -82 411 -71 q 353 -85 374 -92 l 332 -78 l 389 -187 l 364 -178 l 307 -70 l 264 -57 l 239 -141 l 221 -135 l 277 47 l 384 14 q 414 -11 405 7 q 417 -50 424 -29 m 400 -45 q 378 -2 410 -11 l 289 24 l 270 -39 l 357 -67 q 400 -45 391 -78 m 274 46 l 144 6 l 185 -123 l 162 -110 l 127 0 l 105 -6 l 76 -66 l 59 -57 l 145 112 l 162 104 l 117 15 l 249 58 l 274 46 "},"°":{"x_min":60,"x_max":304.78125,"ha":305,"o":"m 304 606 q 268 520 304 556 q 182 484 232 484 q 96 520 132 484 q 60 606 60 556 q 96 692 60 655 q 182 729 133 729 q 267 692 231 729 q 304 606 304 655 m 277 606 q 249 673 277 645 q 182 701 221 701 q 115 673 143 701 q 87 606 87 645 q 115 539 87 567 q 182 512 143 512 q 249 539 221 512 q 277 606 277 567 "},"V":{"x_min":59.71875,"x_max":673.609375,"ha":674,"o":"m 673 729 l 397 -11 l 362 -11 l 59 729 l 93 729 l 377 16 l 380 16 l 643 729 l 673 729 "},"å":{"x_min":60,"x_max":800,"ha":800,"o":"m 800 -12 l 772 -12 l 772 215 q 636 48 730 111 q 430 -13 543 -13 q 167 94 275 -13 q 60 357 60 201 q 168 620 60 512 q 430 728 276 728 q 636 665 543 728 q 772 498 730 602 l 772 729 l 800 729 l 800 -12 m 772 357 q 672 600 772 501 q 430 700 573 700 q 187 600 287 700 q 87 357 87 501 q 187 113 87 213 q 430 14 286 14 q 672 114 573 14 q 772 357 772 214 "}," ":{"x_min":0,"x_max":0,"ha":460},"0":{"x_min":60,"x_max":801.78125,"ha":802,"o":"m 801 357 q 694 93 801 201 q 430 -13 586 -13 q 167 93 275 -13 q 60 357 60 201 q 167 620 60 512 q 430 728 275 728 q 694 620 586 728 q 801 357 801 512 m 774 357 q 673 600 774 500 q 430 700 573 700 q 187 600 287 700 q 87 357 87 500 q 187 114 87 214 q 430 14 287 14 q 673 114 573 14 q 774 357 774 214 "},"":{"x_min":65.5,"x_max":1205.234375,"ha":1205,"o":"m 1108 521 q 965 174 1108 317 q 617 31 822 31 q 269 189 413 31 q 128 549 128 343 q 272 884 128 753 q 618 1012 412 1012 q 965 868 822 1012 q 1108 521 1108 725 m 1039 521 q 916 819 1039 696 q 618 943 793 943 q 319 820 441 943 q 197 521 197 698 q 319 223 197 346 q 618 100 442 100 q 916 223 793 100 q 1039 521 1039 346 m 841 428 q 815 367 841 392 q 753 342 790 342 q 679 385 704 342 l 754 428 l 679 471 q 753 516 704 516 q 815 490 790 516 q 841 428 841 464 m 637 428 q 611 367 637 392 q 549 342 585 342 q 474 385 499 342 l 550 428 l 474 471 q 549 516 499 516 q 611 490 585 516 q 637 428 637 464 m 768 291 q 733 207 768 242 q 650 173 698 173 q 566 207 601 173 q 532 291 532 242 l 768 291 m 1205 -43 l 1074 -111 l 1067 -96 l 1102 95 l 1005 46 l 997 62 l 1116 123 l 1123 108 l 1088 -84 l 1196 -27 l 1205 -43 m 981 -146 l 963 -152 l 911 13 l 862 -3 l 856 14 l 973 51 l 979 35 l 929 18 l 981 -146 m 870 -177 l 852 -181 l 813 6 l 831 10 l 870 -177 m 642 -21 l 625 -209 l 609 -209 l 609 -169 q 529 -201 578 -205 q 467 -166 491 -196 q 443 -96 443 -135 q 474 -31 443 -56 q 547 -10 506 -6 q 621 -56 596 -14 l 625 -17 l 641 -18 l 640 -16 l 660 -16 l 741 -170 l 786 -2 l 805 -2 l 752 -196 l 736 -199 l 642 -21 m 615 -113 q 597 -56 618 -81 q 545 -29 577 -31 q 490 -46 513 -26 q 462 -98 466 -66 q 479 -155 458 -130 q 531 -183 500 -180 q 588 -166 563 -186 q 615 -113 612 -145 m 423 -50 q 399 -82 417 -71 q 359 -85 380 -92 l 338 -78 l 395 -187 l 370 -178 l 313 -70 l 270 -57 l 245 -141 l 227 -135 l 283 47 l 390 14 q 420 -11 411 7 q 423 -50 430 -29 m 406 -45 q 384 -2 416 -11 l 295 24 l 276 -39 l 363 -67 q 406 -45 397 -78 m 280 46 l 150 6 l 191 -123 l 168 -110 l 133 0 l 111 -6 l 82 -66 l 65 -57 l 151 112 l 168 104 l 123 15 l 255 58 l 280 46 "},"”":{"x_min":60,"x_max":261.78125,"ha":262,"o":"m 261 565 q 254 477 261 499 q 199 416 242 440 l 199 444 q 234 565 234 466 l 234 729 l 261 729 l 261 565 m 122 565 q 115 477 122 499 q 60 416 103 440 l 60 444 q 95 565 95 466 l 95 729 l 122 729 l 122 565 "},"@":{"x_min":60,"x_max":801.78125,"ha":802,"o":"m 801 357 q 694 93 801 201 q 430 -13 586 -13 q 167 93 275 -13 q 60 357 60 201 q 167 620 60 512 q 430 728 275 728 q 694 620 586 728 q 801 357 801 512 m 774 357 q 673 600 774 500 q 430 700 573 700 q 187 600 287 700 q 87 357 87 500 q 187 114 87 214 q 430 14 287 14 q 673 114 573 14 q 774 357 774 214 m 619 157 l 570 157 l 570 226 q 417 155 510 155 q 273 214 332 155 q 214 357 214 273 q 273 501 214 442 q 417 561 332 561 q 570 488 510 561 l 570 561 l 619 561 l 619 157 m 570 358 q 525 466 570 421 q 417 512 481 512 q 308 466 353 512 q 263 358 263 421 q 308 249 263 294 q 417 204 353 204 q 525 249 481 204 q 570 358 570 294 "},"ö":{"x_min":60,"x_max":801.78125,"ha":802,"o":"m 801 357 q 694 93 801 201 q 430 -13 586 -13 q 167 93 275 -13 q 60 357 60 201 q 167 620 60 512 q 430 728 275 728 q 694 620 586 728 q 801 357 801 512 m 774 357 q 673 600 774 500 q 430 700 573 700 q 187 600 287 700 q 87 357 87 500 q 187 114 87 214 q 430 14 287 14 q 673 114 573 14 q 774 357 774 214 m 556 895 q 517 856 556 856 q 478 895 478 856 q 517 934 478 934 q 556 895 556 934 m 341 895 q 302 856 341 856 q 263 895 263 856 q 302 934 263 934 q 341 895 341 934 "},"i":{"x_min":60,"x_max":107,"ha":107,"o":"m 107 705 q 83 682 107 682 q 60 705 60 682 q 83 729 60 729 q 107 705 107 729 m 97 -11 l 70 -11 l 70 604 l 97 604 l 97 -11 "},"≤":{"x_min":60,"x_max":203,"ha":203,"o":"m 203 168 l 60 361 l 60 383 l 203 576 l 203 527 l 87 372 l 203 216 l 203 168 "},"Õ":{"x_min":60,"x_max":801.78125,"ha":802,"o":"m 801 357 q 694 93 801 201 q 430 -13 586 -13 q 167 93 275 -13 q 60 357 60 201 q 167 620 60 512 q 430 728 275 728 q 694 620 586 728 q 801 357 801 512 m 774 357 q 673 600 774 500 q 430 700 573 700 q 187 600 287 700 q 87 357 87 500 q 187 114 87 214 q 430 14 287 14 q 673 114 573 14 q 774 357 774 214 m 608 942 q 583 867 608 897 q 512 838 557 838 q 421 878 479 838 q 336 918 362 918 q 289 892 308 918 q 269 836 269 865 l 242 836 q 270 910 242 875 q 336 946 298 946 q 428 905 367 946 q 512 865 489 865 q 562 888 543 865 q 581 942 581 911 l 608 942 "},"þ":{"x_min":60,"x_max":800,"ha":800,"o":"m 800 358 q 692 95 800 204 q 430 -12 584 -12 q 223 49 316 -12 q 87 216 130 110 l 87 -11 l 60 -11 l 60 868 l 87 868 l 87 498 q 223 666 130 604 q 430 728 316 728 q 692 620 584 728 q 800 358 800 512 m 772 358 q 672 600 772 501 q 430 700 573 700 q 187 600 287 700 q 87 358 87 501 q 187 114 87 213 q 430 15 286 15 q 672 115 573 15 q 772 358 772 215 "},"]":{"x_min":59.828125,"x_max":216.78125,"ha":217,"o":"m 216 -246 l 59 -246 l 59 -218 l 189 -218 l 189 988 l 59 988 l 59 1015 l 216 1015 l 216 -246 "},"m":{"x_min":60,"x_max":801.78125,"ha":802,"o":"m 801 -12 l 774 -12 l 774 534 q 725 651 774 602 q 608 700 676 700 q 490 652 538 700 q 443 536 443 605 l 443 -12 l 415 -12 l 415 536 q 367 652 415 604 q 251 700 319 700 q 135 652 183 700 q 87 536 87 604 l 87 -12 l 60 -12 l 60 729 l 87 729 l 87 636 q 251 728 143 728 q 358 695 309 728 q 429 608 406 662 q 499 696 449 664 q 608 728 548 728 q 744 670 687 728 q 801 534 801 613 l 801 -12 "},"8":{"x_min":60,"x_max":599,"ha":599,"o":"m 599 204 q 515 37 599 94 q 329 -11 443 -11 q 143 37 215 -11 q 60 204 60 94 q 111 340 60 289 q 248 399 163 390 q 140 447 184 406 q 96 551 96 489 q 167 694 96 646 q 329 735 230 735 q 491 694 428 735 q 563 551 563 646 q 521 449 563 490 q 417 397 479 409 q 549 337 500 388 q 599 204 599 286 m 537 551 q 329 710 537 710 q 122 551 122 710 q 193 439 122 478 q 329 409 250 409 q 465 439 408 409 q 537 551 537 478 m 574 204 q 329 384 574 384 q 85 204 85 384 q 161 57 85 107 q 329 14 226 14 q 497 57 432 14 q 574 204 574 107 "},"ž":{"x_min":60,"x_max":682.515625,"ha":620,"o":"m 620 -11 l 60 -11 l 60 24 l 580 700 l 106 700 l 106 728 l 610 728 l 610 693 l 89 18 l 620 18 l 620 -11 m 682 1015 q 626 905 674 944 q 507 867 579 867 q 394 907 440 867 q 340 1015 348 948 l 368 1015 q 413 928 375 961 q 507 894 451 894 q 654 1015 642 894 l 682 1015 "},"R":{"x_min":60,"x_max":701.671875,"ha":702,"o":"m 701 -10 l 662 -10 l 307 344 l 87 344 l 87 -10 l 60 -10 l 60 729 l 73 728 l 493 728 q 628 671 572 728 q 685 536 685 615 q 628 400 685 456 q 493 344 572 344 l 346 344 l 701 -10 m 657 536 q 609 652 657 604 q 493 700 561 700 l 87 700 l 87 372 l 493 372 q 609 419 561 372 q 657 536 657 467 "},"á":{"x_min":60,"x_max":800,"ha":800,"o":"m 800 -12 l 772 -12 l 772 215 q 636 48 730 111 q 430 -13 543 -13 q 167 94 275 -13 q 60 357 60 201 q 168 620 60 512 q 430 728 276 728 q 636 665 543 728 q 772 498 730 602 l 772 729 l 800 729 l 800 -12 m 772 357 q 672 600 772 501 q 430 700 573 700 q 187 600 287 700 q 87 357 87 501 q 187 113 87 213 q 430 14 286 14 q 672 114 573 14 q 772 357 772 214 m 586 1015 l 383 815 l 362 815 l 545 1015 l 586 1015 "},"o":{"x_min":60,"x_max":801.78125,"ha":802,"o":"m 801 357 q 694 93 801 201 q 430 -13 586 -13 q 167 93 275 -13 q 60 357 60 201 q 167 620 60 512 q 430 728 275 728 q 694 620 586 728 q 801 357 801 512 m 774 357 q 673 600 774 500 q 430 700 573 700 q 187 600 287 700 q 87 357 87 500 q 187 114 87 214 q 430 14 287 14 q 673 114 573 14 q 774 357 774 214 "},"5":{"x_min":58,"x_max":574,"ha":574,"o":"m 574 243 q 503 58 574 128 q 318 -11 432 -11 q 129 55 200 -11 q 58 238 58 121 l 84 238 q 147 71 84 130 q 317 14 209 14 q 485 75 422 14 q 548 243 548 137 q 484 407 548 344 q 317 470 420 470 q 113 360 174 470 l 81 360 l 161 728 l 544 728 l 544 703 l 182 703 l 117 401 q 317 495 179 495 q 502 425 431 495 q 574 243 574 355 "},"õ":{"x_min":60,"x_max":801.78125,"ha":802,"o":"m 801 357 q 694 93 801 201 q 430 -13 586 -13 q 167 93 275 -13 q 60 357 60 201 q 167 620 60 512 q 430 728 275 728 q 694 620 586 728 q 801 357 801 512 m 774 357 q 673 600 774 500 q 430 700 573 700 q 187 600 287 700 q 87 357 87 500 q 187 114 87 214 q 430 14 287 14 q 673 114 573 14 q 774 357 774 214 m 608 942 q 583 867 608 897 q 512 838 557 838 q 421 878 479 838 q 336 918 362 918 q 289 892 308 918 q 269 836 269 865 l 242 836 q 270 910 242 875 q 336 946 298 946 q 428 905 367 946 q 512 865 489 865 q 562 888 543 865 q 581 942 581 911 l 608 942 "},"7":{"x_min":60,"x_max":534,"ha":534,"o":"m 534 697 q 292 377 370 533 q 202 -11 202 198 l 173 -11 q 503 704 173 371 l 60 704 l 60 729 l 534 729 l 534 697 "},"K":{"x_min":60,"x_max":568.34375,"ha":568,"o":"m 568 729 l 196 356 l 564 -12 l 525 -12 l 176 336 l 87 247 l 87 -12 l 60 -12 l 60 729 l 87 729 l 87 286 l 529 729 l 568 729 "},",":{"x_min":60,"x_max":146,"ha":146,"o":"m 146 39 q 120 2 146 12 l 120 0 q 60 -165 120 -122 l 60 -137 q 93 0 93 -104 l 93 2 q 68 39 68 12 q 106 78 68 78 q 146 39 146 78 "},"d":{"x_min":60,"x_max":801.78125,"ha":802,"o":"m 801 357 q 693 95 801 203 q 430 -13 585 -13 l 60 -13 l 60 729 l 73 728 l 430 728 q 694 620 586 728 q 801 357 801 513 m 774 357 q 673 600 774 500 q 430 700 573 700 l 87 700 l 87 14 l 430 14 q 673 114 573 14 q 774 357 774 214 "},"¨":{"x_min":-57,"x_max":236,"ha":181,"o":"m 236 895 q 197 856 236 856 q 158 895 158 856 q 197 934 158 934 q 236 895 236 934 m 21 895 q -18 856 21 856 q -57 895 -57 856 q -18 934 -57 934 q 21 895 21 934 "},"Ô":{"x_min":60,"x_max":801.78125,"ha":802,"o":"m 801 357 q 694 93 801 201 q 430 -13 586 -13 q 167 93 275 -13 q 60 357 60 201 q 167 620 60 512 q 430 728 275 728 q 694 620 586 728 q 801 357 801 512 m 774 357 q 673 600 774 500 q 430 700 573 700 q 187 600 287 700 q 87 357 87 500 q 187 114 87 214 q 430 14 287 14 q 673 114 573 14 q 774 357 774 214 m 592 822 l 564 822 l 421 993 l 283 822 l 255 822 l 412 1015 l 433 1015 l 592 822 "},"E":{"x_min":60,"x_max":802,"ha":802,"o":"m 802 343 l 91 343 q 190 109 91 204 q 429 14 290 14 q 599 58 521 14 q 725 180 678 102 l 748 166 q 613 34 697 82 q 430 -13 529 -13 q 167 93 275 -13 q 60 357 60 201 q 167 620 60 512 q 431 728 275 728 q 694 620 586 728 q 802 357 802 512 l 802 343 m 771 371 q 670 605 771 509 q 431 700 570 700 q 191 605 291 700 q 91 371 91 509 l 771 371 "},"Y":{"x_min":59.890625,"x_max":615.28125,"ha":615,"o":"m 615 729 l 350 380 l 350 -11 l 321 -11 l 321 384 l 59 729 l 96 729 l 336 405 l 581 729 l 615 729 "},"\"":{"x_min":60,"x_max":256,"ha":256,"o":"m 256 690 q 230 653 256 663 l 230 651 q 169 485 230 528 l 169 513 q 203 651 203 547 l 203 653 q 178 690 178 663 q 217 729 178 729 q 256 690 256 729 m 146 690 q 120 653 146 663 l 120 651 q 60 485 120 528 l 60 513 q 93 651 93 547 l 93 653 q 68 690 68 663 q 106 729 68 729 q 146 690 146 729 "},"‹":{"x_min":60,"x_max":203,"ha":203,"o":"m 203 168 l 60 361 l 60 383 l 203 576 l 203 527 l 87 372 l 203 216 l 203 168 "},"˙":{"x_min":60,"x_max":138,"ha":138,"o":"m 138 895 q 99 856 138 856 q 60 895 60 856 q 99 934 60 934 q 138 895 138 934 "},"ê":{"x_min":60,"x_max":802,"ha":802,"o":"m 802 343 l 91 343 q 190 109 91 204 q 429 14 290 14 q 599 58 521 14 q 725 180 678 102 l 748 166 q 613 34 697 82 q 430 -13 529 -13 q 167 93 275 -13 q 60 357 60 201 q 167 620 60 512 q 431 728 275 728 q 694 620 586 728 q 802 357 802 512 l 802 343 m 771 371 q 670 605 771 509 q 431 700 570 700 q 191 605 291 700 q 91 371 91 509 l 771 371 m 591 822 l 564 822 l 421 993 l 283 822 l 256 822 l 412 1015 l 433 1015 l 591 822 "},"Ï":{"x_min":60,"x_max":353,"ha":353,"o":"m 219 -12 l 192 -12 l 192 729 l 219 729 l 219 -12 m 353 894 q 314 855 353 855 q 275 894 275 855 q 314 933 275 933 q 353 894 353 933 m 138 894 q 99 855 138 855 q 60 894 60 855 q 99 933 60 933 q 138 894 138 933 "},"„":{"x_min":60,"x_max":261.78125,"ha":262,"o":"m 261 0 q 199 -165 261 -123 l 199 -137 q 234 0 234 -104 l 234 136 l 261 136 l 261 0 m 122 0 q 60 -165 122 -123 l 60 -137 q 95 0 95 -104 l 95 136 l 122 136 l 122 0 "},"Â":{"x_min":60,"x_max":800,"ha":800,"o":"m 800 -12 l 772 -12 l 772 215 q 636 48 730 111 q 430 -13 543 -13 q 167 94 275 -13 q 60 357 60 201 q 168 620 60 512 q 430 728 276 728 q 636 665 543 728 q 772 498 730 602 l 772 729 l 800 729 l 800 -12 m 772 357 q 672 600 772 501 q 430 700 573 700 q 187 600 287 700 q 87 357 87 501 q 187 113 87 213 q 430 14 286 14 q 672 114 573 14 q 772 357 772 214 m 591 822 l 563 822 l 420 993 l 283 822 l 255 822 l 412 1015 l 433 1015 l 591 822 "},"Í":{"x_min":60.046875,"x_max":283.671875,"ha":284,"o":"m 119 -12 l 92 -12 l 92 729 l 119 729 l 119 -12 m 283 1015 l 80 815 l 60 815 l 243 1015 l 283 1015 "},"´":{"x_min":13.890625,"x_max":237.5,"ha":181,"o":"m 237 1016 l 34 816 l 13 816 l 197 1016 l 237 1016 "},"ì":{"x_min":60,"x_max":273.890625,"ha":274,"o":"m 212 -12 l 185 -12 l 185 729 l 212 729 l 212 -12 m 273 815 l 253 815 l 60 1015 l 100 1015 l 273 815 "},"±":{"x_min":60,"x_max":760,"ha":760,"o":"m 760 400 l 424 400 l 424 125 l 396 125 l 396 400 l 60 400 l 60 428 l 396 428 l 396 703 l 424 703 l 424 428 l 760 428 l 760 400 m 760 0 l 60 0 l 60 27 l 760 27 l 760 0 "},"Ú":{"x_min":60,"x_max":801.78125,"ha":802,"o":"m 801 -12 l 774 -12 l 774 214 q 637 47 730 110 q 430 -14 543 -14 q 167 92 275 -14 q 60 356 60 200 l 60 729 l 87 729 l 87 356 q 187 113 87 213 q 430 13 287 13 q 673 113 573 13 q 774 356 774 213 l 774 729 l 801 729 l 801 -12 m 586 1015 l 383 815 l 362 815 l 546 1015 l 586 1015 "},"|":{"x_min":60,"x_max":87.78125,"ha":88,"o":"m 87 -24 l 60 -24 l 60 1015 l 87 1015 l 87 -24 "},"§":{"x_min":60,"x_max":639,"ha":639,"o":"m 639 166 q 544 19 639 71 q 364 -22 469 -22 q 60 223 60 -22 l 92 223 q 364 7 92 7 q 522 40 457 7 q 607 166 607 82 q 464 304 607 265 q 410 316 457 305 l 389 321 q 204 368 285 343 q 116 492 116 394 l 116 583 q 150 667 116 629 q 344 731 210 731 q 592 539 592 731 l 560 539 q 344 702 560 702 q 175 649 224 702 q 148 583 148 620 q 215 487 148 511 q 390 444 254 474 q 557 390 501 421 q 639 258 639 346 l 639 166 m 609 255 l 607 258 l 607 258 l 607 254 l 609 255 "},"Ý":{"x_min":96.890625,"x_max":652.28125,"ha":652,"o":"m 652 729 l 387 380 l 387 -11 l 358 -11 l 358 384 l 96 729 l 133 729 l 373 405 l 618 729 l 652 729 m 530 1015 l 327 815 l 306 815 l 489 1015 l 530 1015 "},"b":{"x_min":60,"x_max":685,"ha":685,"o":"m 685 181 q 628 44 685 101 q 491 -12 572 -12 l 60 -12 l 60 729 l 73 728 l 493 728 q 628 671 572 728 q 685 536 685 615 q 652 429 685 477 q 565 358 619 380 q 653 288 621 337 q 685 181 685 240 m 657 536 q 609 652 657 604 q 493 700 561 700 l 87 700 l 87 372 l 493 372 q 609 419 561 372 q 657 536 657 467 m 657 180 q 609 296 657 248 q 493 344 561 344 l 87 344 l 87 14 l 491 14 q 609 62 561 14 q 657 180 657 111 "},"q":{"x_min":60,"x_max":801.78125,"ha":802,"o":"m 801 357 q 732 141 801 237 q 549 5 662 44 l 549 -102 l 521 -102 l 521 -2 q 430 -13 476 -13 q 167 93 275 -13 q 60 357 60 201 q 167 620 60 512 q 430 728 275 728 q 694 620 586 728 q 801 357 801 512 m 774 357 q 673 600 774 500 q 429 700 573 700 q 190 604 290 700 q 91 368 91 508 q 382 284 251 368 q 547 34 529 187 q 711 160 649 72 q 774 357 774 248 m 519 25 q 366 260 506 171 q 91 340 245 340 q 190 108 91 202 q 430 14 290 14 q 519 25 476 14 "},"Ω":{"x_min":65.5,"x_max":1205.234375,"ha":1205,"o":"m 1108 521 q 965 174 1108 317 q 617 31 822 31 q 269 189 413 31 q 128 549 128 343 q 272 884 128 753 q 618 1012 412 1012 q 965 868 822 1012 q 1108 521 1108 725 m 1039 521 q 916 819 1039 696 q 618 943 793 943 q 319 820 441 943 q 197 521 197 698 q 319 223 197 346 q 618 100 442 100 q 916 223 793 100 q 1039 521 1039 346 m 841 428 q 815 367 841 392 q 753 342 790 342 q 679 385 704 342 l 754 428 l 679 471 q 753 516 704 516 q 815 490 790 516 q 841 428 841 464 m 637 428 q 611 367 637 392 q 549 342 585 342 q 474 385 499 342 l 550 428 l 474 471 q 549 516 499 516 q 611 490 585 516 q 637 428 637 464 m 768 291 q 733 207 768 242 q 650 173 698 173 q 566 207 601 173 q 532 291 532 242 l 768 291 m 1205 -43 l 1074 -111 l 1067 -96 l 1102 95 l 1005 46 l 997 62 l 1116 123 l 1123 108 l 1088 -84 l 1196 -27 l 1205 -43 m 981 -146 l 963 -152 l 911 13 l 862 -3 l 856 14 l 973 51 l 979 35 l 929 18 l 981 -146 m 870 -177 l 852 -181 l 813 6 l 831 10 l 870 -177 m 642 -21 l 625 -209 l 609 -209 l 609 -169 q 529 -201 578 -205 q 467 -166 491 -196 q 443 -96 443 -135 q 474 -31 443 -56 q 547 -10 506 -6 q 621 -56 596 -14 l 625 -17 l 641 -18 l 640 -16 l 660 -16 l 741 -170 l 786 -2 l 805 -2 l 752 -196 l 736 -199 l 642 -21 m 615 -113 q 597 -56 618 -81 q 545 -29 577 -31 q 490 -46 513 -26 q 462 -98 466 -66 q 479 -155 458 -130 q 531 -183 500 -180 q 588 -166 563 -186 q 615 -113 612 -145 m 423 -50 q 399 -82 417 -71 q 359 -85 380 -92 l 338 -78 l 395 -187 l 370 -178 l 313 -70 l 270 -57 l 245 -141 l 227 -135 l 283 47 l 390 14 q 420 -11 411 7 q 423 -50 430 -29 m 406 -45 q 384 -2 416 -11 l 295 24 l 276 -39 l 363 -67 q 406 -45 397 -78 m 280 46 l 150 6 l 191 -123 l 168 -110 l 133 0 l 111 -6 l 82 -66 l 65 -57 l 151 112 l 168 104 l 123 15 l 255 58 l 280 46 "},"Ö":{"x_min":60,"x_max":801.78125,"ha":802,"o":"m 801 357 q 694 93 801 201 q 430 -13 586 -13 q 167 93 275 -13 q 60 357 60 201 q 167 620 60 512 q 430 728 275 728 q 694 620 586 728 q 801 357 801 512 m 774 357 q 673 600 774 500 q 430 700 573 700 q 187 600 287 700 q 87 357 87 500 q 187 114 87 214 q 430 14 287 14 q 673 114 573 14 q 774 357 774 214 m 556 895 q 517 856 556 856 q 478 895 478 856 q 517 934 478 934 q 556 895 556 934 m 341 895 q 302 856 341 856 q 263 895 263 856 q 302 934 263 934 q 341 895 341 934 "},"z":{"x_min":60,"x_max":620,"ha":620,"o":"m 620 -11 l 60 -11 l 60 24 l 580 700 l 106 700 l 106 728 l 610 728 l 610 693 l 89 18 l 620 18 l 620 -11 "},"™":{"x_min":60,"x_max":707,"ha":707,"o":"m 707 331 l 665 331 l 665 617 q 644 666 665 646 q 595 687 624 687 q 547 667 566 687 q 528 619 528 648 l 528 331 l 486 331 l 486 619 q 465 666 486 646 q 418 687 445 687 q 370 666 390 687 q 350 619 350 646 l 350 332 l 308 332 l 308 730 l 350 730 l 350 705 q 418 729 380 729 q 507 682 473 729 q 595 729 539 729 q 674 696 641 729 q 707 617 707 663 l 707 331 m 282 455 q 272 399 279 432 q 171 332 243 332 q 92 364 125 332 q 60 443 60 397 l 60 729 l 102 729 l 102 551 l 281 551 l 281 509 l 102 509 l 102 442 q 122 393 102 413 q 170 373 142 373 q 238 455 238 373 l 282 455 "},"ã":{"x_min":60,"x_max":800,"ha":800,"o":"m 800 -12 l 772 -12 l 772 215 q 636 48 730 111 q 430 -13 543 -13 q 167 94 275 -13 q 60 357 60 201 q 168 620 60 512 q 430 728 276 728 q 636 665 543 728 q 772 498 730 602 l 772 729 l 800 729 l 800 -12 m 772 357 q 672 600 772 501 q 430 700 573 700 q 187 600 287 700 q 87 357 87 501 q 187 113 87 213 q 430 14 286 14 q 672 114 573 14 q 772 357 772 214 m 608 941 q 583 866 608 896 q 512 837 557 837 q 421 877 479 837 q 336 917 362 917 q 289 891 308 917 q 269 835 269 864 l 242 835 q 270 909 242 873 q 336 945 298 945 q 428 904 367 945 q 512 864 489 864 q 562 887 543 864 q 581 941 581 910 l 608 941 "},"æ":{"x_min":60,"x_max":1327,"ha":1327,"o":"m 1327 342 l 800 342 l 800 50 q 955 13 873 13 q 1125 57 1047 13 q 1250 179 1202 101 l 1273 165 q 1138 33 1222 80 q 955 -14 1054 -14 q 800 19 873 -14 l 800 -12 l 772 -12 l 772 33 q 691 94 727 58 q 430 -13 583 -13 q 167 94 275 -13 q 60 357 60 201 q 168 620 60 512 q 430 728 276 728 q 693 618 583 728 q 772 679 727 654 l 772 729 l 800 729 l 800 693 q 955 728 873 728 q 1219 620 1111 728 q 1327 356 1327 512 l 1327 342 m 1296 370 q 1196 604 1296 509 q 956 700 1096 700 q 800 662 874 700 l 800 370 l 1296 370 m 772 498 l 772 647 q 711 598 738 626 q 772 498 750 552 m 772 357 q 693 577 772 481 q 612 370 612 481 l 612 342 q 691 136 612 231 q 772 357 772 232 m 772 65 l 772 215 q 711 115 750 161 q 772 65 738 87 m 673 115 q 585 356 585 219 q 673 598 585 494 q 430 700 573 700 q 187 600 287 700 q 87 357 87 501 q 187 113 87 213 q 430 14 286 14 q 673 115 572 14 "},"®":{"x_min":60,"x_max":801.78125,"ha":802,"o":"m 801 357 q 694 93 801 201 q 430 -13 586 -13 q 167 93 275 -13 q 60 357 60 201 q 167 620 60 512 q 430 728 275 728 q 694 620 586 728 q 801 357 801 512 m 774 357 q 673 600 774 500 q 430 700 573 700 q 187 600 287 700 q 87 357 87 500 q 187 114 87 214 q 430 14 287 14 q 673 114 573 14 q 774 357 774 214 m 630 159 l 570 159 l 393 337 l 305 337 l 305 159 l 263 159 l 263 559 l 284 557 l 493 557 q 570 524 538 557 q 603 447 603 492 q 570 369 603 402 q 493 337 537 337 l 453 337 l 630 159 m 561 447 q 541 495 561 476 q 493 515 522 515 l 305 515 l 305 379 l 493 379 q 540 399 520 379 q 561 447 561 419 "},"É":{"x_min":60,"x_max":802,"ha":802,"o":"m 802 343 l 91 343 q 190 109 91 204 q 429 14 290 14 q 599 58 521 14 q 725 180 678 102 l 748 166 q 613 34 697 82 q 430 -13 529 -13 q 167 93 275 -13 q 60 357 60 201 q 167 620 60 512 q 431 728 275 728 q 694 620 586 728 q 802 357 802 512 l 802 343 m 771 371 q 670 605 771 509 q 431 700 570 700 q 191 605 291 700 q 91 371 91 509 l 771 371 m 586 1015 l 383 815 l 363 815 l 546 1015 l 586 1015 "},"~":{"x_min":59.71875,"x_max":679.171875,"ha":679,"o":"m 679 409 q 527 290 605 290 q 393 334 490 290 q 318 367 356 351 q 223 386 269 386 q 87 284 145 386 l 59 292 q 223 412 122 412 q 385 364 276 412 q 529 317 494 317 q 651 417 586 317 l 679 409 "},"¡":{"x_min":60,"x_max":107,"ha":107,"o":"m 107 705 q 83 682 107 682 q 60 705 60 682 q 83 729 60 729 q 107 705 107 729 m 97 -11 l 70 -11 l 70 604 l 97 604 l 97 -11 "},"[":{"x_min":60,"x_max":216.953125,"ha":217,"o":"m 216 -246 l 60 -246 l 60 1015 l 216 1015 l 216 988 l 87 988 l 87 -218 l 216 -218 l 216 -246 "},"L":{"x_min":60,"x_max":429.453125,"ha":430,"o":"m 429 -11 l 60 -11 l 60 729 l 87 729 l 87 16 l 429 16 l 429 -11 "}," ":{"x_min":0,"x_max":0,"ha":460},"∑":{"x_min":65.5,"x_max":1205.234375,"ha":1205,"o":"m 1108 521 q 965 174 1108 317 q 617 31 822 31 q 269 189 413 31 q 128 549 128 343 q 272 884 128 753 q 618 1012 412 1012 q 965 868 822 1012 q 1108 521 1108 725 m 1039 521 q 916 819 1039 696 q 618 943 793 943 q 319 820 441 943 q 197 521 197 698 q 319 223 197 346 q 618 100 442 100 q 916 223 793 100 q 1039 521 1039 346 m 841 428 q 815 367 841 392 q 753 342 790 342 q 679 385 704 342 l 754 428 l 679 471 q 753 516 704 516 q 815 490 790 516 q 841 428 841 464 m 637 428 q 611 367 637 392 q 549 342 585 342 q 474 385 499 342 l 550 428 l 474 471 q 549 516 499 516 q 611 490 585 516 q 637 428 637 464 m 768 291 q 733 207 768 242 q 650 173 698 173 q 566 207 601 173 q 532 291 532 242 l 768 291 m 1205 -43 l 1074 -111 l 1067 -96 l 1102 95 l 1005 46 l 997 62 l 1116 123 l 1123 108 l 1088 -84 l 1196 -27 l 1205 -43 m 981 -146 l 963 -152 l 911 13 l 862 -3 l 856 14 l 973 51 l 979 35 l 929 18 l 981 -146 m 870 -177 l 852 -181 l 813 6 l 831 10 l 870 -177 m 642 -21 l 625 -209 l 609 -209 l 609 -169 q 529 -201 578 -205 q 467 -166 491 -196 q 443 -96 443 -135 q 474 -31 443 -56 q 547 -10 506 -6 q 621 -56 596 -14 l 625 -17 l 641 -18 l 640 -16 l 660 -16 l 741 -170 l 786 -2 l 805 -2 l 752 -196 l 736 -199 l 642 -21 m 615 -113 q 597 -56 618 -81 q 545 -29 577 -31 q 490 -46 513 -26 q 462 -98 466 -66 q 479 -155 458 -130 q 531 -183 500 -180 q 588 -166 563 -186 q 615 -113 612 -145 m 423 -50 q 399 -82 417 -71 q 359 -85 380 -92 l 338 -78 l 395 -187 l 370 -178 l 313 -70 l 270 -57 l 245 -141 l 227 -135 l 283 47 l 390 14 q 420 -11 411 7 q 423 -50 430 -29 m 406 -45 q 384 -2 416 -11 l 295 24 l 276 -39 l 363 -67 q 406 -45 397 -78 m 280 46 l 150 6 l 191 -123 l 168 -110 l 133 0 l 111 -6 l 82 -66 l 65 -57 l 151 112 l 168 104 l 123 15 l 255 58 l 280 46 "},"%":{"x_min":60,"x_max":761,"ha":761,"o":"m 397 557 q 349 431 397 480 q 226 382 302 382 q 104 429 148 382 q 60 557 60 477 q 104 685 60 636 q 226 735 148 735 q 351 687 306 735 q 397 557 397 639 m 371 557 q 226 711 371 711 q 86 557 86 711 q 122 447 86 489 q 226 406 159 406 q 332 448 293 406 q 371 557 371 490 m 761 187 q 713 60 761 109 q 590 11 666 11 q 469 59 514 11 q 424 185 424 108 q 467 315 424 266 q 590 365 511 365 q 715 316 670 365 q 761 187 761 267 m 735 185 q 590 340 735 340 q 450 185 450 340 q 486 77 450 119 q 590 36 523 36 q 696 77 657 36 q 735 185 735 119 m 679 758 l 161 -11 l 130 -11 l 648 758 l 679 758 "},"P":{"x_min":60,"x_max":685,"ha":685,"o":"m 685 536 q 628 400 685 456 q 493 344 572 344 l 87 344 l 87 -11 l 60 -11 l 60 729 l 73 728 l 493 728 q 628 671 572 728 q 685 536 685 615 m 657 536 q 609 652 657 604 q 493 700 561 700 l 87 700 l 87 372 l 493 372 q 609 419 561 372 q 657 536 657 467 "},"∏":{"x_min":65.5,"x_max":1205.234375,"ha":1205,"o":"m 1108 521 q 965 174 1108 317 q 617 31 822 31 q 269 189 413 31 q 128 549 128 343 q 272 884 128 753 q 618 1012 412 1012 q 965 868 822 1012 q 1108 521 1108 725 m 1039 521 q 916 819 1039 696 q 618 943 793 943 q 319 820 441 943 q 197 521 197 698 q 319 223 197 346 q 618 100 442 100 q 916 223 793 100 q 1039 521 1039 346 m 841 428 q 815 367 841 392 q 753 342 790 342 q 679 385 704 342 l 754 428 l 679 471 q 753 516 704 516 q 815 490 790 516 q 841 428 841 464 m 637 428 q 611 367 637 392 q 549 342 585 342 q 474 385 499 342 l 550 428 l 474 471 q 549 516 499 516 q 611 490 585 516 q 637 428 637 464 m 768 291 q 733 207 768 242 q 650 173 698 173 q 566 207 601 173 q 532 291 532 242 l 768 291 m 1205 -43 l 1074 -111 l 1067 -96 l 1102 95 l 1005 46 l 997 62 l 1116 123 l 1123 108 l 1088 -84 l 1196 -27 l 1205 -43 m 981 -146 l 963 -152 l 911 13 l 862 -3 l 856 14 l 973 51 l 979 35 l 929 18 l 981 -146 m 870 -177 l 852 -181 l 813 6 l 831 10 l 870 -177 m 642 -21 l 625 -209 l 609 -209 l 609 -169 q 529 -201 578 -205 q 467 -166 491 -196 q 443 -96 443 -135 q 474 -31 443 -56 q 547 -10 506 -6 q 621 -56 596 -14 l 625 -17 l 641 -18 l 640 -16 l 660 -16 l 741 -170 l 786 -2 l 805 -2 l 752 -196 l 736 -199 l 642 -21 m 615 -113 q 597 -56 618 -81 q 545 -29 577 -31 q 490 -46 513 -26 q 462 -98 466 -66 q 479 -155 458 -130 q 531 -183 500 -180 q 588 -166 563 -186 q 615 -113 612 -145 m 423 -50 q 399 -82 417 -71 q 359 -85 380 -92 l 338 -78 l 395 -187 l 370 -178 l 313 -70 l 270 -57 l 245 -141 l 227 -135 l 283 47 l 390 14 q 420 -11 411 7 q 423 -50 430 -29 m 406 -45 q 384 -2 416 -11 l 295 24 l 276 -39 l 363 -67 q 406 -45 397 -78 m 280 46 l 150 6 l 191 -123 l 168 -110 l 133 0 l 111 -6 l 82 -66 l 65 -57 l 151 112 l 168 104 l 123 15 l 255 58 l 280 46 "},"À":{"x_min":60,"x_max":800,"ha":800,"o":"m 800 -12 l 772 -12 l 772 215 q 636 48 730 111 q 430 -13 543 -13 q 167 94 275 -13 q 60 357 60 201 q 168 620 60 512 q 430 728 276 728 q 636 665 543 728 q 772 498 730 602 l 772 729 l 800 729 l 800 -12 m 772 357 q 672 600 772 501 q 430 700 573 700 q 187 600 287 700 q 87 357 87 501 q 187 113 87 213 q 430 14 286 14 q 672 114 573 14 q 772 357 772 214 m 509 815 l 489 815 l 296 1015 l 336 1015 l 509 815 "},"_":{"x_min":60,"x_max":754,"ha":754,"o":"m 754 -174 l 60 -174 l 60 -105 l 754 -105 l 754 -174 "},"ñ":{"x_min":60,"x_max":679.78125,"ha":680,"o":"m 679 -12 l 652 -12 l 652 417 q 570 618 652 536 q 369 700 488 700 q 169 618 251 700 q 87 417 87 536 l 87 -12 l 60 -12 l 60 729 l 87 729 l 87 545 q 202 678 126 629 q 369 728 278 728 q 589 637 499 728 q 679 417 679 547 l 679 -12 m 553 941 q 527 866 553 896 q 457 837 501 837 q 365 877 423 837 q 280 917 307 917 q 233 891 252 917 q 214 835 214 864 l 186 835 q 214 909 186 873 q 280 945 243 945 q 372 904 311 945 q 457 864 433 864 q 506 887 487 864 q 525 941 525 910 l 553 941 "},"+":{"x_min":60,"x_max":760,"ha":760,"o":"m 760 337 l 424 337 l 424 0 l 396 0 l 396 337 l 60 337 l 60 365 l 396 365 l 396 703 l 424 703 l 424 365 l 760 365 l 760 337 "},"‚":{"x_min":60,"x_max":122.78125,"ha":123,"o":"m 122 0 q 60 -165 122 -123 l 60 -137 q 95 0 95 -104 l 95 136 l 122 136 l 122 0 "},"Æ":{"x_min":60,"x_max":1327,"ha":1327,"o":"m 1327 342 l 800 342 l 800 50 q 955 13 873 13 q 1125 57 1047 13 q 1250 179 1202 101 l 1273 165 q 1138 33 1222 80 q 955 -14 1054 -14 q 800 19 873 -14 l 800 -12 l 772 -12 l 772 33 q 691 94 727 58 q 430 -13 583 -13 q 167 94 275 -13 q 60 357 60 201 q 168 620 60 512 q 430 728 276 728 q 693 618 583 728 q 772 679 727 654 l 772 729 l 800 729 l 800 693 q 955 728 873 728 q 1219 620 1111 728 q 1327 356 1327 512 l 1327 342 m 1296 370 q 1196 604 1296 509 q 956 700 1096 700 q 800 662 874 700 l 800 370 l 1296 370 m 772 498 l 772 647 q 711 598 738 626 q 772 498 750 552 m 772 357 q 693 577 772 481 q 612 370 612 481 l 612 342 q 691 136 612 231 q 772 357 772 232 m 772 65 l 772 215 q 711 115 750 161 q 772 65 738 87 m 673 115 q 585 356 585 219 q 673 598 585 494 q 430 700 573 700 q 187 600 287 700 q 87 357 87 501 q 187 113 87 213 q 430 14 286 14 q 673 115 572 14 "},"Ë":{"x_min":60,"x_max":802,"ha":802,"o":"m 802 343 l 91 343 q 190 109 91 204 q 429 14 290 14 q 599 58 521 14 q 725 180 678 102 l 748 166 q 613 34 697 82 q 430 -13 529 -13 q 167 93 275 -13 q 60 357 60 201 q 167 620 60 512 q 431 728 275 728 q 694 620 586 728 q 802 357 802 512 l 802 343 m 771 371 q 670 605 771 509 q 431 700 570 700 q 191 605 291 700 q 91 371 91 509 l 771 371 m 556 895 q 517 856 556 856 q 478 895 478 856 q 517 934 478 934 q 556 895 556 934 m 341 895 q 302 856 341 856 q 263 895 263 856 q 302 934 263 934 q 341 895 341 934 "},"'":{"x_min":60,"x_max":146,"ha":146,"o":"m 146 690 q 120 653 146 663 l 120 651 q 60 485 120 528 l 60 513 q 93 651 93 547 l 93 653 q 68 690 68 663 q 106 729 68 729 q 146 690 146 729 "},"Š":{"x_min":60,"x_max":668.34375,"ha":635,"o":"m 635 198 q 547 37 635 93 q 362 -11 473 -11 q 60 261 60 -11 l 87 261 q 362 16 87 16 q 528 57 461 16 q 607 198 607 107 q 533 326 607 283 q 389 375 496 348 q 202 427 334 387 q 115 564 115 458 q 149 657 115 615 q 343 728 208 728 q 587 516 587 728 l 560 516 q 343 700 560 700 q 172 639 223 700 q 143 564 143 604 q 213 454 143 480 q 389 405 245 441 q 554 346 505 375 q 635 198 635 296 m 668 1015 q 612 905 660 944 q 493 867 565 867 q 380 907 426 867 q 326 1015 334 948 l 354 1015 q 399 928 361 961 q 493 894 437 894 q 640 1015 628 894 l 668 1015 "},"ª":{"x_min":65.5,"x_max":1205.234375,"ha":1205,"o":"m 1108 521 q 965 174 1108 317 q 617 31 822 31 q 269 189 413 31 q 128 549 128 343 q 272 884 128 753 q 618 1012 412 1012 q 965 868 822 1012 q 1108 521 1108 725 m 1039 521 q 916 819 1039 696 q 618 943 793 943 q 319 820 441 943 q 197 521 197 698 q 319 223 197 346 q 618 100 442 100 q 916 223 793 100 q 1039 521 1039 346 m 841 428 q 815 367 841 392 q 753 342 790 342 q 679 385 704 342 l 754 428 l 679 471 q 753 516 704 516 q 815 490 790 516 q 841 428 841 464 m 637 428 q 611 367 637 392 q 549 342 585 342 q 474 385 499 342 l 550 428 l 474 471 q 549 516 499 516 q 611 490 585 516 q 637 428 637 464 m 768 291 q 733 207 768 242 q 650 173 698 173 q 566 207 601 173 q 532 291 532 242 l 768 291 m 1205 -43 l 1074 -111 l 1067 -96 l 1102 95 l 1005 46 l 997 62 l 1116 123 l 1123 108 l 1088 -84 l 1196 -27 l 1205 -43 m 981 -146 l 963 -152 l 911 13 l 862 -3 l 856 14 l 973 51 l 979 35 l 929 18 l 981 -146 m 870 -177 l 852 -181 l 813 6 l 831 10 l 870 -177 m 642 -21 l 625 -209 l 609 -209 l 609 -169 q 529 -201 578 -205 q 467 -166 491 -196 q 443 -96 443 -135 q 474 -31 443 -56 q 547 -10 506 -6 q 621 -56 596 -14 l 625 -17 l 641 -18 l 640 -16 l 660 -16 l 741 -170 l 786 -2 l 805 -2 l 752 -196 l 736 -199 l 642 -21 m 615 -113 q 597 -56 618 -81 q 545 -29 577 -31 q 490 -46 513 -26 q 462 -98 466 -66 q 479 -155 458 -130 q 531 -183 500 -180 q 588 -166 563 -186 q 615 -113 612 -145 m 423 -50 q 399 -82 417 -71 q 359 -85 380 -92 l 338 -78 l 395 -187 l 370 -178 l 313 -70 l 270 -57 l 245 -141 l 227 -135 l 283 47 l 390 14 q 420 -11 411 7 q 423 -50 430 -29 m 406 -45 q 384 -2 416 -11 l 295 24 l 276 -39 l 363 -67 q 406 -45 397 -78 m 280 46 l 150 6 l 191 -123 l 168 -110 l 133 0 l 111 -6 l 82 -66 l 65 -57 l 151 112 l 168 104 l 123 15 l 255 58 l 280 46 "},"Œ":{"x_min":60,"x_max":1327,"ha":1327,"o":"m 1327 343 l 799 343 q 713 115 799 214 q 955 14 812 14 q 1125 58 1047 14 q 1250 180 1202 102 l 1273 166 q 1138 34 1222 82 q 955 -13 1054 -13 q 693 94 801 -13 q 430 -13 585 -13 q 167 93 275 -13 q 60 357 60 201 q 167 620 60 512 q 430 728 275 728 q 693 619 585 728 q 956 728 801 728 q 1219 620 1111 728 q 1327 357 1327 512 l 1327 343 m 1296 371 q 1196 605 1296 509 q 957 700 1096 700 q 713 598 813 700 q 799 371 799 500 l 1296 371 m 771 371 q 693 577 771 487 q 616 371 616 487 l 771 371 m 771 343 l 616 343 q 693 136 616 226 q 771 343 771 226 m 674 115 q 585 357 585 219 q 674 598 585 494 q 431 700 574 700 q 187 600 287 700 q 87 357 87 500 q 187 114 87 214 q 431 14 287 14 q 674 115 574 14 "},"˛":{"x_min":60,"x_max":294.71875,"ha":295,"o":"m 294 -208 q 164 -263 246 -263 q 93 -240 122 -263 q 60 -176 60 -217 q 194 0 60 -101 l 235 0 q 87 -175 87 -112 q 112 -221 87 -204 q 164 -235 133 -235 q 271 -192 233 -235 l 294 -208 "},"ð":{"x_min":60,"x_max":650,"ha":650,"o":"m 650 528 l 555 528 q 582 342 582 444 q 532 102 582 178 q 316 -11 455 -11 q 134 61 209 -11 q 60 239 60 133 q 135 416 60 344 q 316 488 211 488 q 469 437 399 488 q 558 308 539 387 q 528 528 558 435 l 358 528 l 358 555 l 519 555 q 302 710 456 710 q 98 549 134 710 l 72 549 q 149 685 86 636 q 302 735 212 735 q 545 555 477 735 l 650 555 l 650 528 m 546 239 q 479 398 546 333 q 316 463 412 463 q 153 398 220 463 q 86 239 86 333 q 153 79 86 144 q 316 14 220 14 q 479 79 412 14 q 546 239 546 144 "},"T":{"x_min":60,"x_max":520,"ha":520,"o":"m 520 700 l 299 700 l 299 -11 l 271 -11 l 271 700 l 60 700 l 60 728 l 520 728 l 520 700 "},"š":{"x_min":60,"x_max":668.34375,"ha":635,"o":"m 635 198 q 547 37 635 93 q 362 -11 473 -11 q 60 261 60 -11 l 87 261 q 362 16 87 16 q 528 57 461 16 q 607 198 607 107 q 533 326 607 283 q 389 375 496 348 q 202 427 334 387 q 115 564 115 458 q 149 657 115 615 q 343 728 208 728 q 587 516 587 728 l 560 516 q 343 700 560 700 q 172 639 223 700 q 143 564 143 604 q 213 454 143 480 q 389 405 245 441 q 554 346 505 375 q 635 198 635 296 m 668 1015 q 612 905 660 944 q 493 867 565 867 q 380 907 426 867 q 326 1015 334 948 l 354 1015 q 399 928 361 961 q 493 894 437 894 q 640 1015 628 894 l 668 1015 "},"Þ":{"x_min":60,"x_max":800,"ha":800,"o":"m 800 358 q 692 95 800 204 q 430 -12 584 -12 q 223 49 316 -12 q 87 216 130 110 l 87 -150 l 60 -150 l 60 868 l 87 868 l 87 498 q 223 666 130 604 q 430 728 316 728 q 692 620 584 728 q 800 358 800 512 m 772 358 q 672 600 772 501 q 430 700 573 700 q 187 600 287 700 q 87 358 87 501 q 187 114 87 213 q 430 15 286 15 q 672 115 573 15 q 772 358 772 215 "},"j":{"x_min":60,"x_max":633.78125,"ha":634,"o":"m 633 273 q 550 70 633 154 q 347 -14 467 -14 q 143 69 226 -14 q 60 273 60 152 l 87 273 q 162 88 87 163 q 347 13 237 13 q 530 89 455 13 q 606 273 606 164 l 606 729 l 633 729 l 633 273 "},"1":{"x_min":59.828125,"x_max":341.78125,"ha":342,"o":"m 341 0 l 314 0 l 314 693 l 311 693 q 59 526 225 573 l 59 554 q 198 622 141 581 q 311 729 248 658 l 341 729 l 341 0 "},"›":{"x_min":60,"x_max":203,"ha":203,"o":"m 203 361 l 60 168 l 60 216 l 175 372 l 60 527 l 60 576 l 203 383 l 203 361 "},"ı":{"x_min":60,"x_max":87.78125,"ha":88,"o":"m 87 0 l 60 0 l 60 714 l 87 714 l 87 0 "},"ä":{"x_min":60,"x_max":800,"ha":800,"o":"m 800 -12 l 772 -12 l 772 215 q 636 48 730 111 q 430 -13 543 -13 q 167 94 275 -13 q 60 357 60 201 q 168 620 60 512 q 430 728 276 728 q 636 665 543 728 q 772 498 730 602 l 772 729 l 800 729 l 800 -12 m 772 357 q 672 600 772 501 q 430 700 573 700 q 187 600 287 700 q 87 357 87 501 q 187 113 87 213 q 430 14 286 14 q 672 114 573 14 q 772 357 772 214 m 556 894 q 517 855 556 855 q 478 894 478 855 q 517 933 478 933 q 556 894 556 933 m 341 894 q 302 855 341 855 q 263 894 263 855 q 302 933 263 933 q 341 894 341 933 "},"<":{"x_min":60,"x_max":203,"ha":203,"o":"m 203 168 l 60 361 l 60 383 l 203 576 l 203 527 l 87 372 l 203 216 l 203 168 "},"£":{"x_min":60,"x_max":460,"ha":460,"o":"m 460 -11 l 60 -11 l 60 534 q 117 671 60 615 q 254 728 174 728 q 363 696 314 728 q 432 608 412 664 q 445 536 445 589 l 419 536 q 370 652 419 604 q 254 700 322 700 q 136 652 185 700 q 87 534 87 604 l 87 373 l 307 373 l 307 346 l 87 346 l 87 16 l 436 16 l 436 82 l 460 82 l 460 -11 "},"t":{"x_min":60,"x_max":446.109375,"ha":446,"o":"m 445 181 q 432 108 445 128 q 363 20 412 52 q 254 -11 314 -11 q 117 45 174 -11 q 60 183 60 102 l 60 728 l 87 728 l 87 640 l 446 640 l 446 613 l 87 613 l 87 183 q 136 65 87 114 q 254 16 185 16 q 370 64 322 16 q 419 181 419 112 l 445 181 "},"¬":{"x_min":59.765625,"x_max":759.78125,"ha":760,"o":"m 759 128 l 732 128 l 732 472 l 59 472 l 59 499 l 759 499 l 759 128 "},"ù":{"x_min":60,"x_max":801.78125,"ha":802,"o":"m 801 -12 l 774 -12 l 774 214 q 637 47 730 110 q 430 -14 543 -14 q 167 92 275 -14 q 60 356 60 200 l 60 729 l 87 729 l 87 356 q 187 113 87 213 q 430 13 287 13 q 673 113 573 13 q 774 356 774 213 l 774 729 l 801 729 l 801 -12 m 510 815 l 489 815 l 296 1014 l 336 1014 l 510 815 "},"W":{"x_min":59.71875,"x_max":1050,"ha":1050,"o":"m 1050 729 l 813 -11 l 777 -11 l 555 701 l 552 701 l 329 -11 l 290 -11 l 59 729 l 87 729 l 308 16 l 311 16 l 531 729 l 575 729 l 794 16 l 797 16 l 1022 729 l 1050 729 "},"ï":{"x_min":60,"x_max":353,"ha":353,"o":"m 221 -12 l 193 -12 l 193 729 l 221 729 l 221 -12 m 353 894 q 314 855 353 855 q 275 894 275 855 q 314 933 275 933 q 353 894 353 933 m 138 894 q 99 855 138 855 q 60 894 60 855 q 99 933 60 933 q 138 894 138 933 "},">":{"x_min":60,"x_max":203,"ha":203,"o":"m 203 361 l 60 168 l 60 216 l 175 372 l 60 527 l 60 576 l 203 383 l 203 361 "},"v":{"x_min":90.28125,"x_max":704.171875,"ha":704,"o":"m 704 729 l 427 -11 l 393 -11 l 90 729 l 123 729 l 408 16 l 411 16 l 673 729 l 704 729 "},"û":{"x_min":60,"x_max":801.78125,"ha":802,"o":"m 801 -12 l 774 -12 l 774 214 q 637 47 730 110 q 430 -14 543 -14 q 167 92 275 -14 q 60 356 60 200 l 60 729 l 87 729 l 87 356 q 187 113 87 213 q 430 13 287 13 q 673 113 573 13 q 774 356 774 213 l 774 729 l 801 729 l 801 -12 m 592 822 l 564 822 l 421 992 l 283 822 l 255 822 l 412 1014 l 433 1014 l 592 822 "},"Ò":{"x_min":60,"x_max":801.78125,"ha":802,"o":"m 801 357 q 694 93 801 201 q 430 -13 586 -13 q 167 93 275 -13 q 60 357 60 201 q 167 620 60 512 q 430 728 275 728 q 694 620 586 728 q 801 357 801 512 m 774 357 q 673 600 774 500 q 430 700 573 700 q 187 600 287 700 q 87 357 87 500 q 187 114 87 214 q 430 14 287 14 q 673 114 573 14 q 774 357 774 214 m 510 815 l 489 815 l 296 1015 l 336 1015 l 510 815 "},"&":{"x_min":65.5,"x_max":1205.234375,"ha":1205,"o":"m 1108 521 q 965 174 1108 317 q 617 31 822 31 q 269 189 413 31 q 128 549 128 343 q 272 884 128 753 q 618 1012 412 1012 q 965 868 822 1012 q 1108 521 1108 725 m 1039 521 q 916 819 1039 696 q 618 943 793 943 q 319 820 441 943 q 197 521 197 698 q 319 223 197 346 q 618 100 442 100 q 916 223 793 100 q 1039 521 1039 346 m 841 428 q 815 367 841 392 q 753 342 790 342 q 679 385 704 342 l 754 428 l 679 471 q 753 516 704 516 q 815 490 790 516 q 841 428 841 464 m 637 428 q 611 367 637 392 q 549 342 585 342 q 474 385 499 342 l 550 428 l 474 471 q 549 516 499 516 q 611 490 585 516 q 637 428 637 464 m 768 291 q 733 207 768 242 q 650 173 698 173 q 566 207 601 173 q 532 291 532 242 l 768 291 m 1205 -43 l 1074 -111 l 1067 -96 l 1102 95 l 1005 46 l 997 62 l 1116 123 l 1123 108 l 1088 -84 l 1196 -27 l 1205 -43 m 981 -146 l 963 -152 l 911 13 l 862 -3 l 856 14 l 973 51 l 979 35 l 929 18 l 981 -146 m 870 -177 l 852 -181 l 813 6 l 831 10 l 870 -177 m 642 -21 l 625 -209 l 609 -209 l 609 -169 q 529 -201 578 -205 q 467 -166 491 -196 q 443 -96 443 -135 q 474 -31 443 -56 q 547 -10 506 -6 q 621 -56 596 -14 l 625 -17 l 641 -18 l 640 -16 l 660 -16 l 741 -170 l 786 -2 l 805 -2 l 752 -196 l 736 -199 l 642 -21 m 615 -113 q 597 -56 618 -81 q 545 -29 577 -31 q 490 -46 513 -26 q 462 -98 466 -66 q 479 -155 458 -130 q 531 -183 500 -180 q 588 -166 563 -186 q 615 -113 612 -145 m 423 -50 q 399 -82 417 -71 q 359 -85 380 -92 l 338 -78 l 395 -187 l 370 -178 l 313 -70 l 270 -57 l 245 -141 l 227 -135 l 283 47 l 390 14 q 420 -11 411 7 q 423 -50 430 -29 m 406 -45 q 384 -2 416 -11 l 295 24 l 276 -39 l 363 -67 q 406 -45 397 -78 m 280 46 l 150 6 l 191 -123 l 168 -110 l 133 0 l 111 -6 l 82 -66 l 65 -57 l 151 112 l 168 104 l 123 15 l 255 58 l 280 46 "},"˝":{"x_min":59.71875,"x_max":491.671875,"ha":492,"o":"m 491 1016 l 288 816 l 268 816 l 451 1016 l 491 1016 m 283 1016 l 80 816 l 59 816 l 243 1016 l 283 1016 "},"Ð":{"x_min":60,"x_max":861,"ha":861,"o":"m 861 357 q 752 95 861 203 q 490 -13 644 -13 l 120 -13 l 120 396 l 60 396 l 60 423 l 120 423 l 120 729 l 133 728 l 490 728 q 753 620 645 728 q 861 357 861 513 m 833 357 q 733 600 833 500 q 490 700 633 700 l 147 700 l 147 423 l 282 423 l 282 396 l 147 396 l 147 14 l 490 14 q 733 114 633 14 q 833 357 833 214 "},"I":{"x_min":60,"x_max":87.78125,"ha":88,"o":"m 87 -12 l 60 -12 l 60 729 l 87 729 l 87 -12 "},"ˉ":{"x_min":60,"x_max":382,"ha":382,"o":"m 382 872 l 60 872 l 60 899 l 382 899 l 382 872 "},"G":{"x_min":60,"x_max":802,"ha":802,"o":"m 802 357 q 694 93 802 201 q 431 -13 586 -13 q 167 93 275 -13 q 60 357 60 201 q 167 620 60 512 q 430 728 275 728 q 610 681 526 728 q 746 552 694 634 l 722 539 q 430 700 619 700 q 187 600 287 700 q 87 357 87 500 q 188 114 87 214 q 432 14 288 14 q 671 109 571 14 q 771 343 771 204 l 429 343 l 429 371 l 802 371 l 802 357 "},"`":{"x_min":-52.78125,"x_max":161.109375,"ha":181,"o":"m 161 816 l 140 816 l -52 1016 l -12 1016 l 161 816 "},"·":{"x_min":60,"x_max":149,"ha":149,"o":"m 149 472 q 104 428 149 428 q 60 472 60 428 q 104 517 60 517 q 149 472 149 517 "},"r":{"x_min":60,"x_max":701.671875,"ha":702,"o":"m 701 -10 l 662 -10 l 307 344 l 87 344 l 87 -10 l 60 -10 l 60 729 l 73 728 l 493 728 q 628 671 572 728 q 685 536 685 615 q 628 400 685 456 q 493 344 572 344 l 346 344 l 701 -10 m 657 536 q 609 652 657 604 q 493 700 561 700 l 87 700 l 87 372 l 493 372 q 609 419 561 372 q 657 536 657 467 "},"¿":{"x_min":60,"x_max":547.78125,"ha":548,"o":"m 327 704 q 303 681 327 681 q 280 704 280 681 q 303 728 280 728 q 327 704 327 728 m 547 234 q 476 60 547 132 q 304 -10 406 -10 q 131 61 203 -10 q 60 235 60 133 q 126 403 60 332 q 290 474 193 474 l 290 639 l 318 639 l 318 449 l 304 449 q 151 386 214 449 q 87 233 87 323 q 151 80 87 143 q 304 17 214 17 q 457 80 394 17 q 520 234 520 143 l 547 234 "},"x":{"x_min":104.171875,"x_max":711.109375,"ha":711,"o":"m 711 -12 l 676 -12 l 406 336 l 138 -12 l 104 -12 l 390 357 l 111 729 l 147 729 l 406 378 l 672 729 l 705 729 l 425 357 l 711 -12 "},"è":{"x_min":60,"x_max":802,"ha":802,"o":"m 802 343 l 91 343 q 190 109 91 204 q 429 14 290 14 q 599 58 521 14 q 725 180 678 102 l 748 166 q 613 34 697 82 q 430 -13 529 -13 q 167 93 275 -13 q 60 357 60 201 q 167 620 60 512 q 431 728 275 728 q 694 620 586 728 q 802 357 802 512 l 802 343 m 771 371 q 670 605 771 509 q 431 700 570 700 q 191 605 291 700 q 91 371 91 509 l 771 371 m 510 815 l 489 815 l 296 1015 l 336 1015 l 510 815 "},"º":{"x_min":65.5,"x_max":1205.234375,"ha":1205,"o":"m 1108 521 q 965 174 1108 317 q 617 31 822 31 q 269 189 413 31 q 128 549 128 343 q 272 884 128 753 q 618 1012 412 1012 q 965 868 822 1012 q 1108 521 1108 725 m 1039 521 q 916 819 1039 696 q 618 943 793 943 q 319 820 441 943 q 197 521 197 698 q 319 223 197 346 q 618 100 442 100 q 916 223 793 100 q 1039 521 1039 346 m 841 428 q 815 367 841 392 q 753 342 790 342 q 679 385 704 342 l 754 428 l 679 471 q 753 516 704 516 q 815 490 790 516 q 841 428 841 464 m 637 428 q 611 367 637 392 q 549 342 585 342 q 474 385 499 342 l 550 428 l 474 471 q 549 516 499 516 q 611 490 585 516 q 637 428 637 464 m 768 291 q 733 207 768 242 q 650 173 698 173 q 566 207 601 173 q 532 291 532 242 l 768 291 m 1205 -43 l 1074 -111 l 1067 -96 l 1102 95 l 1005 46 l 997 62 l 1116 123 l 1123 108 l 1088 -84 l 1196 -27 l 1205 -43 m 981 -146 l 963 -152 l 911 13 l 862 -3 l 856 14 l 973 51 l 979 35 l 929 18 l 981 -146 m 870 -177 l 852 -181 l 813 6 l 831 10 l 870 -177 m 642 -21 l 625 -209 l 609 -209 l 609 -169 q 529 -201 578 -205 q 467 -166 491 -196 q 443 -96 443 -135 q 474 -31 443 -56 q 547 -10 506 -6 q 621 -56 596 -14 l 625 -17 l 641 -18 l 640 -16 l 660 -16 l 741 -170 l 786 -2 l 805 -2 l 752 -196 l 736 -199 l 642 -21 m 615 -113 q 597 -56 618 -81 q 545 -29 577 -31 q 490 -46 513 -26 q 462 -98 466 -66 q 479 -155 458 -130 q 531 -183 500 -180 q 588 -166 563 -186 q 615 -113 612 -145 m 423 -50 q 399 -82 417 -71 q 359 -85 380 -92 l 338 -78 l 395 -187 l 370 -178 l 313 -70 l 270 -57 l 245 -141 l 227 -135 l 283 47 l 390 14 q 420 -11 411 7 q 423 -50 430 -29 m 406 -45 q 384 -2 416 -11 l 295 24 l 276 -39 l 363 -67 q 406 -45 397 -78 m 280 46 l 150 6 l 191 -123 l 168 -110 l 133 0 l 111 -6 l 82 -66 l 65 -57 l 151 112 l 168 104 l 123 15 l 255 58 l 280 46 "},"Ø":{"x_min":60,"x_max":801.78125,"ha":802,"o":"m 801 357 q 694 93 801 201 q 430 -13 586 -13 q 167 93 275 -13 q 60 357 60 201 q 167 620 60 512 q 430 728 275 728 q 694 620 586 728 q 801 357 801 512 m 774 357 q 673 600 774 500 q 430 700 573 700 q 187 600 287 700 q 87 357 87 500 q 187 114 87 214 q 430 14 287 14 q 673 114 573 14 q 774 357 774 214 "},"∞":{"x_min":65.5,"x_max":1205.234375,"ha":1205,"o":"m 1108 521 q 965 174 1108 317 q 617 31 822 31 q 269 189 413 31 q 128 549 128 343 q 272 884 128 753 q 618 1012 412 1012 q 965 868 822 1012 q 1108 521 1108 725 m 1039 521 q 916 819 1039 696 q 618 943 793 943 q 319 820 441 943 q 197 521 197 698 q 319 223 197 346 q 618 100 442 100 q 916 223 793 100 q 1039 521 1039 346 m 841 428 q 815 367 841 392 q 753 342 790 342 q 679 385 704 342 l 754 428 l 679 471 q 753 516 704 516 q 815 490 790 516 q 841 428 841 464 m 637 428 q 611 367 637 392 q 549 342 585 342 q 474 385 499 342 l 550 428 l 474 471 q 549 516 499 516 q 611 490 585 516 q 637 428 637 464 m 768 291 q 733 207 768 242 q 650 173 698 173 q 566 207 601 173 q 532 291 532 242 l 768 291 m 1205 -43 l 1074 -111 l 1067 -96 l 1102 95 l 1005 46 l 997 62 l 1116 123 l 1123 108 l 1088 -84 l 1196 -27 l 1205 -43 m 981 -146 l 963 -152 l 911 13 l 862 -3 l 856 14 l 973 51 l 979 35 l 929 18 l 981 -146 m 870 -177 l 852 -181 l 813 6 l 831 10 l 870 -177 m 642 -21 l 625 -209 l 609 -209 l 609 -169 q 529 -201 578 -205 q 467 -166 491 -196 q 443 -96 443 -135 q 474 -31 443 -56 q 547 -10 506 -6 q 621 -56 596 -14 l 625 -17 l 641 -18 l 640 -16 l 660 -16 l 741 -170 l 786 -2 l 805 -2 l 752 -196 l 736 -199 l 642 -21 m 615 -113 q 597 -56 618 -81 q 545 -29 577 -31 q 490 -46 513 -26 q 462 -98 466 -66 q 479 -155 458 -130 q 531 -183 500 -180 q 588 -166 563 -186 q 615 -113 612 -145 m 423 -50 q 399 -82 417 -71 q 359 -85 380 -92 l 338 -78 l 395 -187 l 370 -178 l 313 -70 l 270 -57 l 245 -141 l 227 -135 l 283 47 l 390 14 q 420 -11 411 7 q 423 -50 430 -29 m 406 -45 q 384 -2 416 -11 l 295 24 l 276 -39 l 363 -67 q 406 -45 397 -78 m 280 46 l 150 6 l 191 -123 l 168 -110 l 133 0 l 111 -6 l 82 -66 l 65 -57 l 151 112 l 168 104 l 123 15 l 255 58 l 280 46 "},"μ":{"x_min":60,"x_max":600,"ha":600,"o":"m 600 0 l 572 0 l 572 176 l 569 176 q 478 33 548 84 q 312 -16 408 -16 q 90 112 147 -16 l 87 112 l 87 -246 l 60 -246 l 60 714 l 86 714 l 86 244 q 145 73 86 135 q 312 11 205 11 q 506 101 436 11 q 572 309 572 182 l 572 714 l 600 714 l 600 0 "},"÷":{"x_min":60,"x_max":760,"ha":760,"o":"m 467 646 q 409 589 467 589 q 353 646 353 589 q 368 687 353 671 q 409 703 384 703 q 450 686 433 703 q 467 646 467 669 m 760 337 l 60 337 l 60 365 l 760 365 l 760 337 m 467 57 q 409 0 467 0 q 353 57 353 0 q 368 98 353 82 q 409 114 384 114 q 450 97 433 114 q 467 57 467 80 "},"h":{"x_min":60,"x_max":661,"ha":661,"o":"m 661 -12 l 633 -12 l 633 338 l 87 338 l 87 -12 l 60 -12 l 60 729 l 87 729 l 87 365 l 633 365 l 633 729 l 661 729 l 661 -12 "},".":{"x_min":60,"x_max":138,"ha":138,"o":"m 138 39 q 99 0 138 0 q 60 39 60 0 q 99 78 60 78 q 138 39 138 78 "},";":{"x_min":60,"x_max":146,"ha":146,"o":"m 146 336 q 106 297 146 297 q 68 336 68 297 q 106 375 68 375 q 146 336 146 375 m 146 38 q 120 1 146 11 l 120 0 q 60 -166 120 -123 l 60 -138 q 93 0 93 -105 l 93 1 q 68 38 68 11 q 106 77 68 77 q 146 38 146 77 "},"f":{"x_min":60,"x_max":532.21875,"ha":532,"o":"m 532 346 l 87 346 l 87 -11 l 60 -11 l 60 729 l 73 728 l 532 728 l 532 700 l 87 700 l 87 373 l 532 373 l 532 346 "},"“":{"x_min":60,"x_max":261,"ha":261,"o":"m 261 701 q 226 580 226 679 l 226 417 l 199 417 l 199 580 q 205 668 199 646 q 261 729 218 705 l 261 701 m 123 701 q 87 580 87 679 l 87 417 l 60 417 l 60 580 q 66 668 60 646 q 123 729 79 705 l 123 701 "},"A":{"x_min":60,"x_max":800,"ha":800,"o":"m 800 -12 l 772 -12 l 772 215 q 636 48 730 111 q 430 -13 543 -13 q 167 94 275 -13 q 60 357 60 201 q 168 620 60 512 q 430 728 276 728 q 636 665 543 728 q 772 498 730 602 l 772 729 l 800 729 l 800 -12 m 772 357 q 672 600 772 501 q 430 700 573 700 q 187 600 287 700 q 87 357 87 501 q 187 113 87 213 q 430 14 286 14 q 672 114 573 14 q 772 357 772 214 "},"6":{"x_min":60,"x_max":582,"ha":582,"o":"m 582 239 q 507 61 582 133 q 325 -11 432 -11 q 108 102 185 -11 q 60 341 60 176 q 118 605 60 501 q 339 735 191 735 q 492 685 429 735 q 569 549 555 636 l 543 549 q 338 710 507 710 q 129 572 193 710 q 84 308 84 469 q 171 438 102 389 q 325 488 240 488 q 506 416 430 488 q 582 239 582 344 m 556 239 q 488 398 556 333 q 325 463 421 463 q 162 398 229 463 q 95 239 95 333 q 162 79 95 144 q 325 14 229 14 q 488 79 421 14 q 556 239 556 144 "},"‘":{"x_min":60,"x_max":123,"ha":123,"o":"m 123 701 q 87 580 87 679 l 87 417 l 60 417 l 60 580 q 66 668 60 646 q 123 729 79 705 l 123 701 "},"π":{"x_min":65.5,"x_max":1205.234375,"ha":1205,"o":"m 1108 521 q 965 174 1108 317 q 617 31 822 31 q 269 189 413 31 q 128 549 128 343 q 272 884 128 753 q 618 1012 412 1012 q 965 868 822 1012 q 1108 521 1108 725 m 1039 521 q 916 819 1039 696 q 618 943 793 943 q 319 820 441 943 q 197 521 197 698 q 319 223 197 346 q 618 100 442 100 q 916 223 793 100 q 1039 521 1039 346 m 841 428 q 815 367 841 392 q 753 342 790 342 q 679 385 704 342 l 754 428 l 679 471 q 753 516 704 516 q 815 490 790 516 q 841 428 841 464 m 637 428 q 611 367 637 392 q 549 342 585 342 q 474 385 499 342 l 550 428 l 474 471 q 549 516 499 516 q 611 490 585 516 q 637 428 637 464 m 768 291 q 733 207 768 242 q 650 173 698 173 q 566 207 601 173 q 532 291 532 242 l 768 291 m 1205 -43 l 1074 -111 l 1067 -96 l 1102 95 l 1005 46 l 997 62 l 1116 123 l 1123 108 l 1088 -84 l 1196 -27 l 1205 -43 m 981 -146 l 963 -152 l 911 13 l 862 -3 l 856 14 l 973 51 l 979 35 l 929 18 l 981 -146 m 870 -177 l 852 -181 l 813 6 l 831 10 l 870 -177 m 642 -21 l 625 -209 l 609 -209 l 609 -169 q 529 -201 578 -205 q 467 -166 491 -196 q 443 -96 443 -135 q 474 -31 443 -56 q 547 -10 506 -6 q 621 -56 596 -14 l 625 -17 l 641 -18 l 640 -16 l 660 -16 l 741 -170 l 786 -2 l 805 -2 l 752 -196 l 736 -199 l 642 -21 m 615 -113 q 597 -56 618 -81 q 545 -29 577 -31 q 490 -46 513 -26 q 462 -98 466 -66 q 479 -155 458 -130 q 531 -183 500 -180 q 588 -166 563 -186 q 615 -113 612 -145 m 423 -50 q 399 -82 417 -71 q 359 -85 380 -92 l 338 -78 l 395 -187 l 370 -178 l 313 -70 l 270 -57 l 245 -141 l 227 -135 l 283 47 l 390 14 q 420 -11 411 7 q 423 -50 430 -29 m 406 -45 q 384 -2 416 -11 l 295 24 l 276 -39 l 363 -67 q 406 -45 397 -78 m 280 46 l 150 6 l 191 -123 l 168 -110 l 133 0 l 111 -6 l 82 -66 l 65 -57 l 151 112 l 168 104 l 123 15 l 255 58 l 280 46 "},"O":{"x_min":60,"x_max":801.78125,"ha":802,"o":"m 801 357 q 694 93 801 201 q 430 -13 586 -13 q 167 93 275 -13 q 60 357 60 201 q 167 620 60 512 q 430 728 275 728 q 694 620 586 728 q 801 357 801 512 m 774 357 q 673 600 774 500 q 430 700 573 700 q 187 600 287 700 q 87 357 87 500 q 187 114 87 214 q 430 14 287 14 q 673 114 573 14 q 774 357 774 214 "},"n":{"x_min":60,"x_max":679.78125,"ha":680,"o":"m 679 -12 l 652 -12 l 652 417 q 570 618 652 536 q 369 700 488 700 q 169 618 251 700 q 87 417 87 536 l 87 -12 l 60 -12 l 60 729 l 87 729 l 87 545 q 202 678 126 629 q 369 728 278 728 q 589 637 499 728 q 679 417 679 547 l 679 -12 "},"3":{"x_min":56,"x_max":582,"ha":582,"o":"m 582 202 q 504 43 582 102 q 330 -11 433 -11 q 130 54 203 -11 q 56 249 56 123 l 82 249 q 149 74 82 134 q 332 14 217 14 q 485 61 423 14 q 556 202 556 114 q 493 337 556 293 q 346 378 439 378 l 292 378 l 292 403 l 346 403 q 481 437 428 403 q 541 558 541 479 q 474 679 541 639 q 335 713 420 713 q 167 657 228 713 q 106 497 106 602 l 80 497 q 147 676 80 615 q 335 738 215 738 q 493 697 432 738 q 567 558 567 651 q 415 390 567 412 q 537 330 493 379 q 582 202 582 280 "},"9":{"x_min":60,"x_max":582,"ha":582,"o":"m 582 382 q 523 118 582 221 q 302 -11 451 -11 q 150 38 213 -11 q 72 174 86 87 l 98 174 q 302 14 134 14 q 512 151 448 14 q 558 415 558 254 q 470 284 539 334 q 316 235 401 235 q 136 307 212 235 q 60 485 60 380 q 134 662 60 590 q 316 735 209 735 q 532 621 455 735 q 582 382 582 546 m 546 484 q 479 644 546 579 q 316 710 412 710 q 153 644 220 710 q 86 484 86 579 q 153 325 86 390 q 316 261 220 261 q 479 325 412 261 q 546 484 546 390 "},"l":{"x_min":60,"x_max":429.453125,"ha":430,"o":"m 429 -11 l 60 -11 l 60 729 l 87 729 l 87 16 l 429 16 l 429 -11 "},"¤":{"x_min":60,"x_max":785.390625,"ha":785,"o":"m 785 166 q 649 35 733 83 q 468 -12 565 -12 q 205 95 314 -12 q 108 262 131 167 l 60 262 l 60 290 l 102 290 q 97 358 97 322 q 102 429 97 394 l 60 429 l 60 457 l 108 457 q 205 619 133 547 q 468 728 312 728 q 647 681 564 728 q 782 552 731 634 l 759 539 q 633 657 711 614 q 468 700 556 700 q 225 600 325 700 q 137 457 161 536 l 759 457 l 759 429 l 130 429 q 125 358 125 394 q 130 290 125 322 l 759 290 l 759 262 l 137 262 q 225 115 159 178 q 468 15 323 15 q 635 59 557 15 q 761 180 714 103 l 785 166 "},"":{"x_min":60,"x_max":497,"ha":497,"o":"m 497 637 q 473 614 497 614 q 450 637 450 614 q 473 661 450 661 q 497 637 497 661 m 487 -11 l 460 -11 l 460 536 l 487 536 l 487 -11 m 446 346 l 87 346 l 87 -10 l 60 -10 l 60 534 q 117 671 60 615 q 254 728 174 728 q 363 695 314 728 q 432 608 412 663 q 445 536 445 589 l 419 536 q 370 652 419 604 q 254 700 322 700 q 136 652 185 700 q 87 534 87 604 l 87 373 l 446 373 l 446 346 "},"∂":{"x_min":60,"x_max":582,"ha":582,"o":"m 582 341 q 532 102 582 177 q 316 -11 455 -11 q 134 61 209 -11 q 60 239 60 133 q 135 416 60 344 q 316 488 211 488 q 469 437 399 488 q 558 308 539 387 q 512 572 558 469 q 302 710 448 710 q 98 549 134 710 l 72 549 q 149 685 86 636 q 302 735 212 735 q 523 605 450 735 q 582 341 582 501 m 546 239 q 479 398 546 333 q 316 463 412 463 q 153 398 220 463 q 86 239 86 333 q 153 79 86 144 q 316 14 220 14 q 479 79 412 14 q 546 239 546 144 "},"4":{"x_min":60,"x_max":593,"ha":593,"o":"m 593 179 l 460 179 l 460 -14 l 434 -14 l 434 179 l 60 179 l 60 206 l 429 728 l 460 728 l 460 204 l 593 204 l 593 179 m 434 204 l 434 693 l 87 204 l 434 204 "},"p":{"x_min":60,"x_max":685,"ha":685,"o":"m 685 536 q 628 400 685 456 q 493 344 572 344 l 87 344 l 87 -11 l 60 -11 l 60 729 l 73 728 l 493 728 q 628 671 572 728 q 685 536 685 615 m 657 536 q 609 652 657 604 q 493 700 561 700 l 87 700 l 87 372 l 493 372 q 609 419 561 372 q 657 536 657 467 "},"‡":{"x_min":60,"x_max":666,"ha":666,"o":"m 666 80 l 376 80 l 376 -194 l 349 -194 l 349 80 l 60 80 l 60 107 l 349 107 l 349 691 l 60 691 l 60 718 l 349 718 l 349 992 l 376 992 l 376 718 l 666 718 l 666 691 l 376 691 l 376 107 l 666 107 l 666 80 "},"à":{"x_min":60,"x_max":800,"ha":800,"o":"m 800 -12 l 772 -12 l 772 215 q 636 48 730 111 q 430 -13 543 -13 q 167 94 275 -13 q 60 357 60 201 q 168 620 60 512 q 430 728 276 728 q 636 665 543 728 q 772 498 730 602 l 772 729 l 800 729 l 800 -12 m 772 357 q 672 600 772 501 q 430 700 573 700 q 187 600 287 700 q 87 357 87 501 q 187 113 87 213 q 430 14 286 14 q 672 114 573 14 q 772 357 772 214 m 509 815 l 489 815 l 296 1015 l 336 1015 l 509 815 "},"Ü":{"x_min":60,"x_max":801.78125,"ha":802,"o":"m 801 -12 l 774 -12 l 774 214 q 637 47 730 110 q 430 -14 543 -14 q 167 92 275 -14 q 60 356 60 200 l 60 729 l 87 729 l 87 356 q 187 113 87 213 q 430 13 287 13 q 673 113 573 13 q 774 356 774 213 l 774 729 l 801 729 l 801 -12 m 556 894 q 517 855 556 855 q 478 894 478 855 q 517 933 478 933 q 556 894 556 933 m 341 894 q 302 855 341 855 q 263 894 263 855 q 302 933 263 933 q 341 894 341 933 "},"ó":{"x_min":60,"x_max":801.78125,"ha":802,"o":"m 801 357 q 694 93 801 201 q 430 -13 586 -13 q 167 93 275 -13 q 60 357 60 201 q 167 620 60 512 q 430 728 275 728 q 694 620 586 728 q 801 357 801 512 m 774 357 q 673 600 774 500 q 430 700 573 700 q 187 600 287 700 q 87 357 87 500 q 187 114 87 214 q 430 14 287 14 q 673 114 573 14 q 774 357 774 214 m 586 1015 l 383 815 l 362 815 l 546 1015 l 586 1015 "},"√":{"x_min":60,"x_max":703.0625,"ha":703,"o":"m 703 652 l 364 93 l 60 325 l 60 364 l 358 131 l 680 669 l 703 652 "}}}
